avcodec_register_all()
avdevice_register_all()
avfilter_register_all()
av_register_all()
avformat_network_init()
show_banner()
term_init()
Splitting the commandline.
Reading option '-i' ... matched as input file with argument '/storage/emulated/0/test.mp4'.
Reading option '/storage/emulated/0/out.mkv' ... matched as output file.
Finished splitting the commandline.
Parsing a group of options: global .
Successfully parsed a group of options.
Parsing a group of options: input file /storage/emulated/0/test.mp4.
Successfully parsed a group of options.
Opening an input file: /storage/emulated/0/test.mp4.
Probing mov,mp4,m4a,3gp,3g2,mj2 score:100 size:2048
Format mov,mp4,m4a,3gp,3g2,mj2 probed with size=2048 and score=100
type: 70797466 'ftyp' parent:'root' sz: 24 8 4871621
ISO: File Type Major Brand: isom
type: 766f6f6d 'moov' parent:'root' sz: 4069 32 4871621
type: 6468766d 'mvhd' parent:'moov' sz: 108 8 4061
time scale = 1000
type: 6b617274 'trak' parent:'moov' sz: 3046 116 4061
type: 64686b74 'tkhd' parent:'trak' sz: 92 8 3038
type: 6169646d 'mdia' parent:'trak' sz: 2946 100 3038
type: 6468646d 'mdhd' parent:'mdia' sz: 32 8 2938
type: 726c6468 'hdlr' parent:'mdia' sz: 44 40 2938
ctype=  (0x00000000)
stype= vide
type: 666e696d 'minf' parent:'mdia' sz: 2862 84 2938
type: 64686d76 'vmhd' parent:'minf' sz: 20 8 2854
type: 666e6964 'dinf' parent:'minf' sz: 36 28 2854
type: 66657264 'dref' parent:'dinf' sz: 28 8 28
type url  size 12
type: 6c627473 'stbl' parent:'minf' sz: 2798 64 2854
type: 64737473 'stsd' parent:'stbl' sz: 158 8 2790
size=142 4CC= avc1/0x31637661 codec_type=0
depth 24, ctab id 65535
type: 43637661 'avcC' parent:'stsd' sz: 40 8 56
type: 70736170 'pasp' parent:'stsd' sz: 16 48 56
type: 73747473 'stts' parent:'stbl' sz: 1632 166 2790
track[0].stts.entries = 202
sample_count=1, sample_duration=2975
sample_count=1, sample_duration=3026
sample_count=1, sample_duration=2978
sample_count=1, sample_duration=2997
sample_count=1, sample_duration=3066
sample_count=1, sample_duration=2945
sample_count=1, sample_duration=3030
sample_count=1, sample_duration=3053
sample_count=1, sample_duration=2923
sample_count=1, sample_duration=2998
sample_count=1, sample_duration=3069
sample_count=1, sample_duration=2941
sample_count=1, sample_duration=3029
sample_count=1, sample_duration=3005
sample_count=1, sample_duration=3001
sample_count=1, sample_duration=3002
sample_count=1, sample_duration=3093
sample_count=1, sample_duration=2981
sample_count=1, sample_duration=2937
sample_count=1, sample_duration=3121
sample_count=1, sample_duration=2886
sample_count=1, sample_duration=3000
sample_count=1, sample_duration=3003
sample_count=1, sample_duration=2967
sample_count=1, sample_duration=3069
sample_count=1, sample_duration=2946
sample_count=1, sample_duration=3040
sample_count=1, sample_duration=2988
sample_count=1, sample_duration=3066
sample_count=1, sample_duration=2957
sample_count=1, sample_duration=2953
sample_count=1, sample_duration=3050
sample_count=1, sample_duration=2997
sample_count=1, sample_duration=2950
sample_count=1, sample_duration=3004
sample_count=1, sample_duration=3087
sample_count=1, sample_duration=2917
sample_count=1, sample_duration=3073
sample_count=1, sample_duration=2999
sample_count=1, sample_duration=3003
sample_count=1, sample_duration=2942
sample_count=1, sample_duration=3017
sample_count=1, sample_duration=2987
sample_count=1, sample_duration=3004
sample_count=1, sample_duration=2991
sample_count=1, sample_duration=3012
sample_count=1, sample_duration=3006
sample_count=1, sample_duration=3023
sample_count=1, sample_duration=2971
sample_count=1, sample_duration=3012
sample_count=2, sample_duration=3002
sample_count=1, sample_duration=3041
sample_count=1, sample_duration=2951
sample_count=1, sample_duration=3269
sample_count=1, sample_duration=2834
sample_count=1, sample_duration=2984
sample_count=1, sample_duration=3311
sample_count=1, sample_duration=2720
sample_count=1, sample_duration=2967
sample_count=1, sample_duration=3009
sample_count=1, sample_duration=3003
sample_count=1, sample_duration=3114
sample_count=1, sample_duration=2890
sample_count=1, sample_duration=2967
sample_count=1, sample_duration=3023
sample_count=1, sample_duration=2984
sample_count=1, sample_duration=3003
sample_count=1, sample_duration=3005
sample_count=1, sample_duration=2999
sample_count=1, sample_duration=2962
sample_count=1, sample_duration=3365
sample_count=1, sample_duration=2633
sample_count=1, sample_duration=3003
sample_count=1, sample_duration=3001
sample_count=1, sample_duration=3009
sample_count=1, sample_duration=3068
sample_count=1, sample_duration=3014
sample_count=1, sample_duration=3013
sample_count=1, sample_duration=2986
sample_count=1, sample_duration=3026
sample_count=1, sample_duration=3090
sample_count=1, sample_duration=2887
sample_count=1, sample_duration=3054
sample_count=1, sample_duration=3080
sample_count=1, sample_duration=3169
sample_count=1, sample_duration=2643
sample_count=1, sample_duration=3005
sample_count=1, sample_duration=2994
sample_count=1, sample_duration=3042
sample_count=1, sample_duration=2998
sample_count=1, sample_duration=2967
sample_count=1, sample_duration=2999
sample_count=1, sample_duration=2997
sample_count=1, sample_duration=3044
sample_count=1, sample_duration=2962
sample_count=1, sample_duration=3001
sample_count=1, sample_duration=3051
sample_count=1, sample_duration=3004
sample_count=1, sample_duration=3109
sample_count=1, sample_duration=2858
sample_count=1, sample_duration=3100
sample_count=1, sample_duration=2909
sample_count=1, sample_duration=3059
sample_count=1, sample_duration=3022
sample_count=1, sample_duration=2986
sample_count=1, sample_duration=2939
sample_count=1, sample_duration=3069
sample_count=1, sample_duration=3006
sample_count=1, sample_duration=3012
sample_count=1, sample_duration=2987
sample_count=1, sample_duration=3002
sample_count=1, sample_duration=2997
sample_count=1, sample_duration=3004
sample_count=1, sample_duration=2998
sample_count=1, sample_duration=3005
sample_count=1, sample_duration=2944
sample_count=1, sample_duration=3120
sample_count=1, sample_duration=2912
sample_count=1, sample_duration=3000
sample_count=1, sample_duration=3141
sample_count=1, sample_duration=2915
sample_count=1, sample_duration=2914
sample_count=1, sample_duration=3070
sample_count=1, sample_duration=2945
sample_count=1, sample_duration=3001
sample_count=1, sample_duration=3139
sample_count=1, sample_duration=2887
sample_count=1, sample_duration=3055
sample_count=1, sample_duration=3025
sample_count=1, sample_duration=2965
sample_count=1, sample_duration=2984
sample_count=1, sample_duration=3039
sample_count=1, sample_duration=2988
sample_count=1, sample_duration=3072
sample_count=1, sample_duration=3016
sample_count=1, sample_duration=2858
sample_count=1, sample_duration=3003
sample_count=1, sample_duration=3067
sample_count=1, sample_duration=2935
sample_count=1, sample_duration=3003
sample_count=1, sample_duration=3232
sample_count=1, sample_duration=2801
sample_count=1, sample_duration=2964
sample_count=1, sample_duration=3037
sample_count=1, sample_duration=3007
sample_count=1, sample_duration=3015
sample_count=1, sample_duration=2991
sample_count=1, sample_duration=3004
sample_count=1, sample_duration=2961
sample_count=1, sample_duration=3088
sample_count=1, sample_duration=2956
sample_count=1, sample_duration=3006
sample_count=1, sample_duration=3022
sample_count=1, sample_duration=2979
sample_count=1, sample_duration=3005
sample_count=1, sample_duration=3068
sample_count=1, sample_duration=2934
sample_count=1, sample_duration=3006
sample_count=1, sample_duration=3001
sample_count=1, sample_duration=3005
sample_count=1, sample_duration=2993
sample_count=1, sample_duration=3030
sample_count=1, sample_duration=2989
sample_count=1, sample_duration=2950
sample_count=1, sample_duration=2996
sample_count=1, sample_duration=3084
sample_count=1, sample_duration=2926
sample_count=1, sample_duration=3044
sample_count=1, sample_duration=2961
sample_count=1, sample_duration=3003
sample_count=1, sample_duration=3012
sample_count=1, sample_duration=2998
sample_count=1, sample_duration=3003
sample_count=1, sample_duration=3072
sample_count=1, sample_duration=2995
sample_count=1, sample_duration=2998
sample_count=1, sample_duration=3009
sample_count=1, sample_duration=2955
sample_count=1, sample_duration=3101
sample_count=1, sample_duration=2978
sample_count=1, sample_duration=2912
sample_count=1, sample_duration=3061
sample_count=1, sample_duration=3013
sample_count=1, sample_duration=3009
sample_count=1, sample_duration=2984
sample_count=1, sample_duration=2932
sample_count=1, sample_duration=3073
sample_count=1, sample_duration=3283
sample_count=1, sample_duration=2657
sample_count=1, sample_duration=3063
sample_count=1, sample_duration=3056
sample_count=1, sample_duration=2881
sample_count=1, sample_duration=3071
sample_count=1, sample_duration=3011
sample_count=1, sample_duration=2942
sample_count=1, sample_duration=3014
sample_count=1, sample_duration=3048
sample_count=1, sample_duration=3433
sample_count=1, sample_duration=2498
sample_count=1, sample_duration=3070
sample_count=1, sample_duration=2969
sample_count=2, sample_duration=2968
type: 73737473 'stss' parent:'stbl' sz: 44 1798 2790
keyframe_count = 7
type: 7a737473 'stsz' parent:'stbl' sz: 836 1842 2790
sample_size = 0 sample_count = 204
type: 63737473 'stsc' parent:'stbl' sz: 76 2678 2790
track[0].stsc.entries = 5
type: 6f637473 'stco' parent:'stbl' sz: 44 2754 2790
AVIndex stream 0, sample 0, offset 62e28, dts 0, size 17622, distance 0, keyframe 1
AVIndex stream 0, sample 1, offset 672fe, dts 2975, size 17465, distance 1, keyframe 0
AVIndex stream 0, sample 2, offset 6b737, dts 6001, size 18115, distance 2, keyframe 0
AVIndex stream 0, sample 3, offset 6fdfa, dts 8979, size 19209, distance 3, keyframe 0
AVIndex stream 0, sample 4, offset 74903, dts 11976, size 19533, distance 4, keyframe 0
AVIndex stream 0, sample 5, offset 79550, dts 15042, size 21692, distance 5, keyframe 0
AVIndex stream 0, sample 6, offset 7ea0c, dts 17987, size 21706, distance 6, keyframe 0
AVIndex stream 0, sample 7, offset 83ed6, dts 21017, size 20255, distance 7, keyframe 0
AVIndex stream 0, sample 8, offset 88df5, dts 24070, size 20245, distance 8, keyframe 0
AVIndex stream 0, sample 9, offset 8dd0a, dts 26993, size 15787, distance 9, keyframe 0
AVIndex stream 0, sample 10, offset 91ab5, dts 29991, size 19694, distance 10, keyframe 0
AVIndex stream 0, sample 11, offset 967a3, dts 33060, size 25566, distance 11, keyframe 0
AVIndex stream 0, sample 12, offset 9cb81, dts 36001, size 22319, distance 12, keyframe 0
AVIndex stream 0, sample 13, offset a22b0, dts 39030, size 26730, distance 13, keyframe 0
AVIndex stream 0, sample 14, offset a8b1a, dts 42035, size 25107, distance 14, keyframe 0
AVIndex stream 0, sample 15, offset aed2d, dts 45036, size 24585, distance 15, keyframe 0
AVIndex stream 0, sample 16, offset b4d36, dts 48038, size 28217, distance 16, keyframe 0
AVIndex stream 0, sample 17, offset bbb6f, dts 51131, size 25958, distance 17, keyframe 0
AVIndex stream 0, sample 18, offset c20d5, dts 54112, size 31896, distance 18, keyframe 0
AVIndex stream 0, sample 19, offset c9d6d, dts 57049, size 31979, distance 19, keyframe 0
AVIndex stream 0, sample 20, offset d1a58, dts 60170, size 30032, distance 20, keyframe 0
AVIndex stream 0, sample 21, offset d8fa8, dts 63056, size 39286, distance 21, keyframe 0
AVIndex stream 0, sample 22, offset e291e, dts 66056, size 44079, distance 22, keyframe 0
AVIndex stream 0, sample 23, offset ed54d, dts 69059, size 36072, distance 23, keyframe 0
AVIndex stream 0, sample 24, offset f6235, dts 72026, size 29230, distance 24, keyframe 0
AVIndex stream 0, sample 25, offset fd463, dts 75095, size 25397, distance 25, keyframe 0
AVIndex stream 0, sample 26, offset 103798, dts 78041, size 26598, distance 26, keyframe 0
AVIndex stream 0, sample 27, offset 109f7e, dts 81081, size 33747, distance 27, keyframe 0
AVIndex stream 0, sample 28, offset 112351, dts 84069, size 35287, distance 28, keyframe 0
AVIndex stream 0, sample 29, offset 11ad28, dts 87135, size 24606, distance 29, keyframe 0
AVIndex stream 0, sample 30, offset 120d46, dts 90092, size 44018, distance 0, keyframe 1
AVIndex stream 0, sample 31, offset 12b938, dts 93045, size 19794, distance 1, keyframe 0
AVIndex stream 0, sample 32, offset 133c8a, dts 96095, size 24595, distance 2, keyframe 0
AVIndex stream 0, sample 33, offset 139c9d, dts 99092, size 21557, distance 3, keyframe 0
AVIndex stream 0, sample 34, offset 13f0d2, dts 102042, size 26881, distance 4, keyframe 0
AVIndex stream 0, sample 35, offset 1459d3, dts 105046, size 15868, distance 5, keyframe 0
AVIndex stream 0, sample 36, offset 1497cf, dts 108133, size 28221, distance 6, keyframe 0
AVIndex stream 0, sample 37, offset 15060c, dts 111050, size 22047, distance 7, keyframe 0
AVIndex stream 0, sample 38, offset 155c2b, dts 114123, size 29220, distance 8, keyframe 0
AVIndex stream 0, sample 39, offset 15ce4f, dts 117122, size 30914, distance 9, keyframe 0
AVIndex stream 0, sample 40, offset 164711, dts 120125, size 31272, distance 10, keyframe 0
AVIndex stream 0, sample 41, offset 16c139, dts 123067, size 30369, distance 11, keyframe 0
AVIndex stream 0, sample 42, offset 1737da, dts 126084, size 23741, distance 12, keyframe 0
AVIndex stream 0, sample 43, offset 179497, dts 129071, size 23632, distance 13, keyframe 0
AVIndex stream 0, sample 44, offset 17f0e7, dts 132075, size 27414, distance 14, keyframe 0
AVIndex stream 0, sample 45, offset 185bfd, dts 135066, size 25429, distance 15, keyframe 0
AVIndex stream 0, sample 46, offset 18bf52, dts 138078, size 17550, distance 16, keyframe 0
AVIndex stream 0, sample 47, offset 1903e0, dts 141084, size 27729, distance 17, keyframe 0
AVIndex stream 0, sample 48, offset 197031, dts 144107, size 29987, distance 18, keyframe 0
AVIndex stream 0, sample 49, offset 19e554, dts 147078, size 23856, distance 19, keyframe 0
AVIndex stream 0, sample 50, offset 1a4284, dts 150090, size 27143, distance 20, keyframe 0
AVIndex stream 0, sample 51, offset 1aac8b, dts 153092, size 28697, distance 21, keyframe 0
AVIndex stream 0, sample 52, offset 1b1ca4, dts 156094, size 25348, distance 22, keyframe 0
AVIndex stream 0, sample 53, offset 1b7fa8, dts 159135, size 24589, distance 23, keyframe 0
AVIndex stream 0, sample 54, offset 1bdfb5, dts 162086, size 31604, distance 24, keyframe 0
AVIndex stream 0, sample 55, offset 1c5b29, dts 165355, size 31489, distance 25, keyframe 0
AVIndex stream 0, sample 56, offset 1cd62a, dts 168189, size 25359, distance 26, keyframe 0
AVIndex stream 0, sample 57, offset 1d3939, dts 171173, size 21975, distance 27, keyframe 0
AVIndex stream 0, sample 58, offset 1d8f10, dts 174484, size 20428, distance 28, keyframe 0
AVIndex stream 0, sample 59, offset 1ddedc, dts 177204, size 20915, distance 29, keyframe 0
AVIndex stream 0, sample 60, offset 1e308f, dts 180171, size 32666, distance 0, keyframe 1
AVIndex stream 0, sample 61, offset 1eb029, dts 183180, size 19196, distance 1, keyframe 0
AVIndex stream 0, sample 62, offset 1f2b25, dts 186183, size 19857, distance 2, keyframe 0
AVIndex stream 0, sample 63, offset 1f78b6, dts 189297, size 25857, distance 3, keyframe 0
AVIndex stream 0, sample 64, offset 1fddb7, dts 192187, size 26961, distance 4, keyframe 0
AVIndex stream 0, sample 65, offset 204708, dts 195154, size 19401, distance 5, keyframe 0
AVIndex stream 0, sample 66, offset 2092d1, dts 198177, size 17764, distance 6, keyframe 0
AVIndex stream 0, sample 67, offset 20d835, dts 201161, size 21677, distance 7, keyframe 0
AVIndex stream 0, sample 68, offset 212ce2, dts 204164, size 13977, distance 8, keyframe 0
AVIndex stream 0, sample 69, offset 21637b, dts 207169, size 22408, distance 9, keyframe 0
AVIndex stream 0, sample 70, offset 21bb03, dts 210168, size 21690, distance 10, keyframe 0
AVIndex stream 0, sample 71, offset 220fbd, dts 213130, size 14429, distance 11, keyframe 0
AVIndex stream 0, sample 72, offset 22481a, dts 216495, size 13416, distance 12, keyframe 0
AVIndex stream 0, sample 73, offset 227c82, dts 219128, size 11969, distance 13, keyframe 0
AVIndex stream 0, sample 74, offset 22ab43, dts 222131, size 11731, distance 14, keyframe 0
AVIndex stream 0, sample 75, offset 22d916, dts 225132, size 11054, distance 15, keyframe 0
AVIndex stream 0, sample 76, offset 230444, dts 228141, size 16393, distance 16, keyframe 0
AVIndex stream 0, sample 77, offset 23444d, dts 231209, size 12861, distance 17, keyframe 0
AVIndex stream 0, sample 78, offset 23768a, dts 234223, size 14141, distance 18, keyframe 0
AVIndex stream 0, sample 79, offset 23adc7, dts 237236, size 14855, distance 19, keyframe 0
AVIndex stream 0, sample 80, offset 23e7ce, dts 240222, size 17330, distance 20, keyframe 0
AVIndex stream 0, sample 81, offset 242b80, dts 243248, size 13522, distance 21, keyframe 0
AVIndex stream 0, sample 82, offset 246052, dts 246338, size 12360, distance 22, keyframe 0
AVIndex stream 0, sample 83, offset 24909a, dts 249225, size 13983, distance 23, keyframe 0
AVIndex stream 0, sample 84, offset 24c739, dts 252279, size 10328, distance 24, keyframe 0
AVIndex stream 0, sample 85, offset 24ef91, dts 255359, size 10662, distance 25, keyframe 0
AVIndex stream 0, sample 86, offset 251937, dts 258528, size 8023, distance 26, keyframe 0
AVIndex stream 0, sample 87, offset 25388e, dts 261171, size 6870, distance 27, keyframe 0
AVIndex stream 0, sample 88, offset 255364, dts 264176, size 7490, distance 28, keyframe 0
AVIndex stream 0, sample 89, offset 2570a6, dts 267170, size 6539, distance 29, keyframe 0
AVIndex stream 0, sample 90, offset 258a31, dts 270212, size 37549, distance 0, keyframe 1
AVIndex stream 0, sample 91, offset 261cde, dts 273210, size 10273, distance 1, keyframe 0
AVIndex stream 0, sample 92, offset 2674ff, dts 276177, size 11900, distance 2, keyframe 0
AVIndex stream 0, sample 93, offset 26a37b, dts 279176, size 11453, distance 3, keyframe 0
AVIndex stream 0, sample 94, offset 26d038, dts 282173, size 12795, distance 4, keyframe 0
AVIndex stream 0, sample 95, offset 270233, dts 285217, size 9767, distance 5, keyframe 0
AVIndex stream 0, sample 96, offset 27285a, dts 288179, size 9052, distance 6, keyframe 0
AVIndex stream 0, sample 97, offset 274bb6, dts 291180, size 8349, distance 7, keyframe 0
AVIndex stream 0, sample 98, offset 276c53, dts 294231, size 10951, distance 8, keyframe 0
AVIndex stream 0, sample 99, offset 27971a, dts 297235, size 13213, distance 9, keyframe 0
AVIndex stream 0, sample 100, offset 27cab7, dts 300344, size 15446, distance 10, keyframe 0
AVIndex stream 0, sample 101, offset 28070d, dts 303202, size 13403, distance 11, keyframe 0
AVIndex stream 0, sample 102, offset 283b68, dts 306302, size 15026, distance 12, keyframe 0
AVIndex stream 0, sample 103, offset 28761a, dts 309211, size 10283, distance 13, keyframe 0
AVIndex stream 0, sample 104, offset 289e45, dts 312270, size 16005, distance 14, keyframe 0
AVIndex stream 0, sample 105, offset 28dcca, dts 315292, size 19090, distance 15, keyframe 0
AVIndex stream 0, sample 106, offset 29275c, dts 318278, size 16531, distance 16, keyframe 0
AVIndex stream 0, sample 107, offset 2967ef, dts 321217, size 15187, distance 17, keyframe 0
AVIndex stream 0, sample 108, offset 29a342, dts 324286, size 19615, distance 18, keyframe 0
AVIndex stream 0, sample 109, offset 29efe1, dts 327292, size 21062, distance 19, keyframe 0
AVIndex stream 0, sample 110, offset 2a4227, dts 330304, size 22827, distance 20, keyframe 0
AVIndex stream 0, sample 111, offset 2a9b52, dts 333291, size 21691, distance 21, keyframe 0
AVIndex stream 0, sample 112, offset 2af00d, dts 336293, size 18053, distance 22, keyframe 0
AVIndex stream 0, sample 113, offset 2b3692, dts 339290, size 15789, distance 23, keyframe 0
AVIndex stream 0, sample 114, offset 2b743f, dts 342294, size 18395, distance 24, keyframe 0
AVIndex stream 0, sample 115, offset 2bbc1a, dts 345292, size 19141, distance 25, keyframe 0
AVIndex stream 0, sample 116, offset 2c06df, dts 348297, size 22239, distance 26, keyframe 0
AVIndex stream 0, sample 117, offset 2c5dbe, dts 351241, size 22481, distance 27, keyframe 0
AVIndex stream 0, sample 118, offset 2cb58f, dts 354361, size 29057, distance 28, keyframe 0
AVIndex stream 0, sample 119, offset 2d2710, dts 357273, size 18438, distance 29, keyframe 0
AVIndex stream 0, sample 120, offset 2d6f16, dts 360273, size 46125, distance 0, keyframe 1
AVIndex stream 0, sample 121, offset 2e2343, dts 363414, size 20847, distance 1, keyframe 0
AVIndex stream 0, sample 122, offset 2ea4b2, dts 366329, size 27778, distance 2, keyframe 0
AVIndex stream 0, sample 123, offset 2f1134, dts 369243, size 26567, distance 3, keyframe 0
AVIndex stream 0, sample 124, offset 2f78fb, dts 372313, size 25837, distance 4, keyframe 0
AVIndex stream 0, sample 125, offset 2fdde8, dts 375258, size 19373, distance 5, keyframe 0
AVIndex stream 0, sample 126, offset 302995, dts 378259, size 21442, distance 6, keyframe 0
AVIndex stream 0, sample 127, offset 307d57, dts 381398, size 26439, distance 7, keyframe 0
AVIndex stream 0, sample 128, offset 30e49e, dts 384285, size 22601, distance 8, keyframe 0
AVIndex stream 0, sample 129, offset 313ce7, dts 387340, size 20475, distance 9, keyframe 0
AVIndex stream 0, sample 130, offset 318ce2, dts 390365, size 20397, distance 10, keyframe 0
AVIndex stream 0, sample 131, offset 31dc8f, dts 393330, size 21177, distance 11, keyframe 0
AVIndex stream 0, sample 132, offset 322f48, dts 396314, size 28462, distance 12, keyframe 0
AVIndex stream 0, sample 133, offset 329e76, dts 399353, size 17987, distance 13, keyframe 0
AVIndex stream 0, sample 134, offset 32e4b9, dts 402341, size 20888, distance 14, keyframe 0
AVIndex stream 0, sample 135, offset 333651, dts 405413, size 19922, distance 15, keyframe 0
AVIndex stream 0, sample 136, offset 338423, dts 408429, size 16584, distance 16, keyframe 0
AVIndex stream 0, sample 137, offset 33c4eb, dts 411287, size 16150, distance 17, keyframe 0
AVIndex stream 0, sample 138, offset 340401, dts 414290, size 20664, distance 18, keyframe 0
AVIndex stream 0, sample 139, offset 3454b9, dts 417357, size 13654, distance 19, keyframe 0
AVIndex stream 0, sample 140, offset 348a0f, dts 420292, size 19781, distance 20, keyframe 0
AVIndex stream 0, sample 141, offset 34d754, dts 423295, size 17867, distance 21, keyframe 0
AVIndex stream 0, sample 142, offset 351d1f, dts 426527, size 24247, distance 22, keyframe 0
AVIndex stream 0, sample 143, offset 357bd6, dts 429328, size 14940, distance 23, keyframe 0
AVIndex stream 0, sample 144, offset 35b632, dts 432292, size 20540, distance 24, keyframe 0
AVIndex stream 0, sample 145, offset 36066e, dts 435329, size 19763, distance 25, keyframe 0
AVIndex stream 0, sample 146, offset 3653a1, dts 438336, size 25804, distance 26, keyframe 0
AVIndex stream 0, sample 147, offset 36b86d, dts 441351, size 18375, distance 27, keyframe 0
AVIndex stream 0, sample 148, offset 370034, dts 444342, size 25601, distance 28, keyframe 0
AVIndex stream 0, sample 149, offset 376435, dts 447346, size 33510, distance 29, keyframe 0
AVIndex stream 0, sample 150, offset 37e71b, dts 450307, size 40478, distance 0, keyframe 1
AVIndex stream 0, sample 151, offset 388539, dts 453395, size 25495, distance 1, keyframe 0
AVIndex stream 0, sample 152, offset 38e8d0, dts 456351, size 16384, distance 2, keyframe 0
AVIndex stream 0, sample 153, offset 3958d0, dts 459357, size 21041, distance 3, keyframe 0
AVIndex stream 0, sample 154, offset 39ab01, dts 462379, size 22921, distance 4, keyframe 0
AVIndex stream 0, sample 155, offset 3a048a, dts 465358, size 26160, distance 5, keyframe 0
AVIndex stream 0, sample 156, offset 3a6aba, dts 468363, size 23267, distance 6, keyframe 0
AVIndex stream 0, sample 157, offset 3ac59d, dts 471431, size 21499, distance 7, keyframe 0
AVIndex stream 0, sample 158, offset 3b1998, dts 474365, size 31711, distance 8, keyframe 0
AVIndex stream 0, sample 159, offset 3b9577, dts 477371, size 25724, distance 9, keyframe 0
AVIndex stream 0, sample 160, offset 3bf9f3, dts 480372, size 18464, distance 10, keyframe 0
AVIndex stream 0, sample 161, offset 3c4213, dts 483377, size 21056, distance 11, keyframe 0
AVIndex stream 0, sample 162, offset 3c9453, dts 486370, size 34685, distance 12, keyframe 0
AVIndex stream 0, sample 163, offset 3d1bd0, dts 489400, size 20383, distance 13, keyframe 0
AVIndex stream 0, sample 164, offset 3d6b6f, dts 492389, size 25965, distance 14, keyframe 0
AVIndex stream 0, sample 165, offset 3dd0dc, dts 495339, size 25912, distance 15, keyframe 0
AVIndex stream 0, sample 166, offset 3e3614, dts 498335, size 19857, distance 16, keyframe 0
AVIndex stream 0, sample 167, offset 3e83a5, dts 501419, size 25173, distance 17, keyframe 0
AVIndex stream 0, sample 168, offset 3ee5fa, dts 504345, size 28084, distance 18, keyframe 0
AVIndex stream 0, sample 169, offset 3f53ae, dts 507389, size 20487, distance 19, keyframe 0
AVIndex stream 0, sample 170, offset 3fa3b5, dts 510350, size 22580, distance 20, keyframe 0
AVIndex stream 0, sample 171, offset 3ffbe9, dts 513353, size 22779, distance 21, keyframe 0
AVIndex stream 0, sample 172, offset 4054e4, dts 516365, size 24036, distance 22, keyframe 0
AVIndex stream 0, sample 173, offset 40b2c8, dts 519363, size 23623, distance 23, keyframe 0
AVIndex stream 0, sample 174, offset 410f0f, dts 522366, size 13574, distance 24, keyframe 0
AVIndex stream 0, sample 175, offset 414415, dts 525438, size 15227, distance 25, keyframe 0
AVIndex stream 0, sample 176, offset 417f90, dts 528433, size 15616, distance 26, keyframe 0
AVIndex stream 0, sample 177, offset 41bc90, dts 531431, size 20715, distance 27, keyframe 0
AVIndex stream 0, sample 178, offset 420d7b, dts 534440, size 15594, distance 28, keyframe 0
AVIndex stream 0, sample 179, offset 424a65, dts 537395, size 24441, distance 29, keyframe 0
AVIndex stream 0, sample 180, offset 42a9de, dts 540496, size 41338, distance 0, keyframe 1
AVIndex stream 0, sample 181, offset 434b58, dts 543474, size 8856, distance 1, keyframe 0
AVIndex stream 0, sample 182, offset 436df0, dts 546386, size 8677, distance 2, keyframe 0
AVIndex stream 0, sample 183, offset 43bfd5, dts 549447, size 18762, distance 3, keyframe 0
AVIndex stream 0, sample 184, offset 44091f, dts 552460, size 19930, distance 4, keyframe 0
AVIndex stream 0, sample 185, offset 4456f9, dts 555469, size 13226, distance 5, keyframe 0
AVIndex stream 0, sample 186, offset 448aa3, dts 558453, size 28111, distance 6, keyframe 0
AVIndex stream 0, sample 187, offset 44f872, dts 561385, size 25481, distance 7, keyframe 0
AVIndex stream 0, sample 188, offset 455bfb, dts 564458, size 16732, distance 8, keyframe 0
AVIndex stream 0, sample 189, offset 459d57, dts 567741, size 15453, distance 9, keyframe 0
AVIndex stream 0, sample 190, offset 45d9b4, dts 570398, size 16100, distance 10, keyframe 0
AVIndex stream 0, sample 191, offset 461898, dts 573461, size 28262, distance 11, keyframe 0
AVIndex stream 0, sample 192, offset 4686fe, dts 576517, size 21693, distance 12, keyframe 0
AVIndex stream 0, sample 193, offset 46dbbb, dts 579398, size 16350, distance 13, keyframe 0
AVIndex stream 0, sample 194, offset 471b99, dts 582469, size 23147, distance 14, keyframe 0
AVIndex stream 0, sample 195, offset 477604, dts 585480, size 33654, distance 15, keyframe 0
AVIndex stream 0, sample 196, offset 47f97a, dts 588422, size 22172, distance 16, keyframe 0
AVIndex stream 0, sample 197, offset 485016, dts 591436, size 16694, distance 17, keyframe 0
AVIndex stream 0, sample 198, offset 48914c, dts 594484, size 18450, distance 18, keyframe 0
AVIndex stream 0, sample 199, offset 48d95e, dts 597917, size 15388, distance 19, keyframe 0
AVIndex stream 0, sample 200, offset 49157a, dts 600415, size 16699, distance 20, keyframe 0
AVIndex stream 0, sample 201, offset 4956b5, dts 603485, size 15271, distance 21, keyframe 0
AVIndex stream 0, sample 202, offset 49925c, dts 606454, size 20248, distance 22, keyframe 0
AVIndex stream 0, sample 203, offset 49e174, dts 609422, size 25169, distance 23, keyframe 0
type: 6b617274 'trak' parent:'moov' sz: 907 3162 4061
type: 64686b74 'tkhd' parent:'trak' sz: 92 8 899
type: 6169646d 'mdia' parent:'trak' sz: 807 100 899
type: 6468646d 'mdhd' parent:'mdia' sz: 32 8 799
type: 726c6468 'hdlr' parent:'mdia' sz: 44 40 799
ctype=  (0x00000000)
stype= soun
type: 666e696d 'minf' parent:'mdia' sz: 723 84 799
type: 64686d73 'smhd' parent:'minf' sz: 16 8 715
type: 666e6964 'dinf' parent:'minf' sz: 36 24 715
type: 66657264 'dref' parent:'dinf' sz: 28 8 28
type url  size 12
type: 6c627473 'stbl' parent:'minf' sz: 663 60 715
type: 64737473 'stsd' parent:'stbl' sz: 91 8 655
size=75 4CC= mp4a/0x6134706d codec_type=1
audio channels 1
version =0, isom =1
type: 73647365 'esds' parent:'stsd' sz: 39 8 39
MPEG4 description: tag=0x03 len=25
MPEG4 description: tag=0x04 len=17
esds object type id 0x40
MPEG4 description: tag=0x05 len=2
Specific MPEG4 header len=2
mp4a config channels 1 obj 2 ext obj 0 sample rate 16000 ext sample rate 0
type: 73747473 'stts' parent:'stbl' sz: 32 99 655
track[1].stts.entries = 2
sample_count=1, sample_duration=1356
sample_count=103, sample_duration=1024
type: 7a737473 'stsz' parent:'stbl' sz: 436 131 655
sample_size = 0 sample_count = 104
type: 63737473 'stsc' parent:'stbl' sz: 52 567 655
track[1].stsc.entries = 3
type: 6f637473 'stco' parent:'stbl' sz: 44 619 655
AVIndex stream 1, sample 0, offset 13068a, dts 0, size 768, distance 0, keyframe 1
AVIndex stream 1, sample 1, offset 13098a, dts 1356, size 768, distance 0, keyframe 1
AVIndex stream 1, sample 2, offset 130c8a, dts 2380, size 768, distance 0, keyframe 1
AVIndex stream 1, sample 3, offset 130f8a, dts 3404, size 768, distance 0, keyframe 1
AVIndex stream 1, sample 4, offset 13128a, dts 4428, size 768, distance 0, keyframe 1
AVIndex stream 1, sample 5, offset 13158a, dts 5452, size 768, distance 0, keyframe 1
AVIndex stream 1, sample 6, offset 13188a, dts 6476, size 768, distance 0, keyframe 1
AVIndex stream 1, sample 7, offset 131b8a, dts 7500, size 768, distance 0, keyframe 1
AVIndex stream 1, sample 8, offset 131e8a, dts 8524, size 768, distance 0, keyframe 1
AVIndex stream 1, sample 9, offset 13218a, dts 9548, size 768, distance 0, keyframe 1
AVIndex stream 1, sample 10, offset 13248a, dts 10572, size 768, distance 0, keyframe 1
AVIndex stream 1, sample 11, offset 13278a, dts 11596, size 768, distance 0, keyframe 1
AVIndex stream 1, sample 12, offset 132a8a, dts 12620, size 768, distance 0, keyframe 1
AVIndex stream 1, sample 13, offset 132d8a, dts 13644, size 768, distance 0, keyframe 1
AVIndex stream 1, sample 14, offset 13308a, dts 14668, size 768, distance 0, keyframe 1
AVIndex stream 1, sample 15, offset 13338a, dts 15692, size 768, distance 0, keyframe 1
AVIndex stream 1, sample 16, offset 13368a, dts 16716, size 768, distance 0, keyframe 1
AVIndex stream 1, sample 17, offset 13398a, dts 17740, size 768, distance 0, keyframe 1
AVIndex stream 1, sample 18, offset 1efb25, dts 18764, size 768, distance 0, keyframe 1
AVIndex stream 1, sample 19, offset 1efe25, dts 19788, size 768, distance 0, keyframe 1
AVIndex stream 1, sample 20, offset 1f0125, dts 20812, size 768, distance 0, keyframe 1
AVIndex stream 1, sample 21, offset 1f0425, dts 21836, size 768, distance 0, keyframe 1
AVIndex stream 1, sample 22, offset 1f0725, dts 22860, size 768, distance 0, keyframe 1
AVIndex stream 1, sample 23, offset 1f0a25, dts 23884, size 768, distance 0, keyframe 1
AVIndex stream 1, sample 24, offset 1f0d25, dts 24908, size 768, distance 0, keyframe 1
AVIndex stream 1, sample 25, offset 1f1025, dts 25932, size 768, distance 0, keyframe 1
AVIndex stream 1, sample 26, offset 1f1325, dts 26956, size 768, distance 0, keyframe 1
AVIndex stream 1, sample 27, offset 1f1625, dts 27980, size 768, distance 0, keyframe 1
AVIndex stream 1, sample 28, offset 1f1925, dts 29004, size 768, distance 0, keyframe 1
AVIndex stream 1, sample 29, offset 1f1c25, dts 30028, size 768, distance 0, keyframe 1
AVIndex stream 1, sample 30, offset 1f1f25, dts 31052, size 768, distance 0, keyframe 1
AVIndex stream 1, sample 31, offset 1f2225, dts 32076, size 768, distance 0, keyframe 1
AVIndex stream 1, sample 32, offset 1f2525, dts 33100, size 768, distance 0, keyframe 1
AVIndex stream 1, sample 33, offset 1f2825, dts 34124, size 768, distance 0, keyframe 1
AVIndex stream 1, sample 34, offset 2644ff, dts 35148, size 768, distance 0, keyframe 1
AVIndex stream 1, sample 35, offset 2647ff, dts 36172, size 768, distance 0, keyframe 1
AVIndex stream 1, sample 36, offset 264aff, dts 37196, size 768, distance 0, keyframe 1
AVIndex stream 1, sample 37, offset 264dff, dts 38220, size 768, distance 0, keyframe 1
AVIndex stream 1, sample 38, offset 2650ff, dts 39244, size 768, distance 0, keyframe 1
AVIndex stream 1, sample 39, offset 2653ff, dts 40268, size 768, distance 0, keyframe 1
AVIndex stream 1, sample 40, offset 2656ff, dts 41292, size 768, distance 0, keyframe 1
AVIndex stream 1, sample 41, offset 2659ff, dts 42316, size 768, distance 0, keyframe 1
AVIndex stream 1, sample 42, offset 265cff, dts 43340, size 768, distance 0, keyframe 1
AVIndex stream 1, sample 43, offset 265fff, dts 44364, size 768, distance 0, keyframe 1
AVIndex stream 1, sample 44, offset 2662ff, dts 45388, size 768, distance 0, keyframe 1
AVIndex stream 1, sample 45, offset 2665ff, dts 46412, size 768, distance 0, keyframe 1
AVIndex stream 1, sample 46, offset 2668ff, dts 47436, size 768, distance 0, keyframe 1
AVIndex stream 1, sample 47, offset 266bff, dts 48460, size 768, distance 0, keyframe 1
AVIndex stream 1, sample 48, offset 266eff, dts 49484, size 768, distance 0, keyframe 1
AVIndex stream 1, sample 49, offset 2671ff, dts 50508, size 768, distance 0, keyframe 1
AVIndex stream 1, sample 50, offset 2e74b2, dts 51532, size 768, distance 0, keyframe 1
AVIndex stream 1, sample 51, offset 2e77b2, dts 52556, size 768, distance 0, keyframe 1
AVIndex stream 1, sample 52, offset 2e7ab2, dts 53580, size 768, distance 0, keyframe 1
AVIndex stream 1, sample 53, offset 2e7db2, dts 54604, size 768, distance 0, keyframe 1
AVIndex stream 1, sample 54, offset 2e80b2, dts 55628, size 768, distance 0, keyframe 1
AVIndex stream 1, sample 55, offset 2e83b2, dts 56652, size 768, distance 0, keyframe 1
AVIndex stream 1, sample 56, offset 2e86b2, dts 57676, size 768, distance 0, keyframe 1
AVIndex stream 1, sample 57, offset 2e89b2, dts 58700, size 768, distance 0, keyframe 1
AVIndex stream 1, sample 58, offset 2e8cb2, dts 59724, size 768, distance 0, keyframe 1
AVIndex stream 1, sample 59, offset 2e8fb2, dts 60748, size 768, distance 0, keyframe 1
AVIndex stream 1, sample 60, offset 2e92b2, dts 61772, size 768, distance 0, keyframe 1
AVIndex stream 1, sample 61, offset 2e95b2, dts 62796, size 768, distance 0, keyframe 1
AVIndex stream 1, sample 62, offset 2e98b2, dts 63820, size 768, distance 0, keyframe 1
AVIndex stream 1, sample 63, offset 2e9bb2, dts 64844, size 768, distance 0, keyframe 1
AVIndex stream 1, sample 64, offset 2e9eb2, dts 65868, size 768, distance 0, keyframe 1
AVIndex stream 1, sample 65, offset 2ea1b2, dts 66892, size 768, distance 0, keyframe 1
AVIndex stream 1, sample 66, offset 3928d0, dts 67916, size 768, distance 0, keyframe 1
AVIndex stream 1, sample 67, offset 392bd0, dts 68940, size 768, distance 0, keyframe 1
AVIndex stream 1, sample 68, offset 392ed0, dts 69964, size 768, distance 0, keyframe 1
AVIndex stream 1, sample 69, offset 3931d0, dts 70988, size 768, distance 0, keyframe 1
AVIndex stream 1, sample 70, offset 3934d0, dts 72012, size 768, distance 0, keyframe 1
AVIndex stream 1, sample 71, offset 3937d0, dts 73036, size 768, distance 0, keyframe 1
AVIndex stream 1, sample 72, offset 393ad0, dts 74060, size 768, distance 0, keyframe 1
AVIndex stream 1, sample 73, offset 393dd0, dts 75084, size 768, distance 0, keyframe 1
AVIndex stream 1, sample 74, offset 3940d0, dts 76108, size 768, distance 0, keyframe 1
AVIndex stream 1, sample 75, offset 3943d0, dts 77132, size 768, distance 0, keyframe 1
AVIndex stream 1, sample 76, offset 3946d0, dts 78156, size 768, distance 0, keyframe 1
AVIndex stream 1, sample 77, offset 3949d0, dts 79180, size 768, distance 0, keyframe 1
AVIndex stream 1, sample 78, offset 394cd0, dts 80204, size 768, distance 0, keyframe 1
AVIndex stream 1, sample 79, offset 394fd0, dts 81228, size 768, distance 0, keyframe 1
AVIndex stream 1, sample 80, offset 3952d0, dts 82252, size 768, distance 0, keyframe 1
AVIndex stream 1, sample 81, offset 3955d0, dts 83276, size 768, distance 0, keyframe 1
AVIndex stream 1, sample 82, offset 438fd5, dts 84300, size 768, distance 0, keyframe 1
AVIndex stream 1, sample 83, offset 4392d5, dts 85324, size 768, distance 0, keyframe 1
AVIndex stream 1, sample 84, offset 4395d5, dts 86348, size 768, distance 0, keyframe 1
AVIndex stream 1, sample 85, offset 4398d5, dts 87372, size 768, distance 0, keyframe 1
AVIndex stream 1, sample 86, offset 439bd5, dts 88396, size 768, distance 0, keyframe 1
AVIndex stream 1, sample 87, offset 439ed5, dts 89420, size 768, distance 0, keyframe 1
AVIndex stream 1, sample 88, offset 43a1d5, dts 90444, size 768, distance 0, keyframe 1
AVIndex stream 1, sample 89, offset 43a4d5, dts 91468, size 768, distance 0, keyframe 1
AVIndex stream 1, sample 90, offset 43a7d5, dts 92492, size 768, distance 0, keyframe 1
AVIndex stream 1, sample 91, offset 43aad5, dts 93516, size 768, distance 0, keyframe 1
AVIndex stream 1, sample 92, offset 43add5, dts 94540, size 768, distance 0, keyframe 1
AVIndex stream 1, sample 93, offset 43b0d5, dts 95564, size 768, distance 0, keyframe 1
AVIndex stream 1, sample 94, offset 43b3d5, dts 96588, size 768, distance 0, keyframe 1
AVIndex stream 1, sample 95, offset 43b6d5, dts 97612, size 768, distance 0, keyframe 1
AVIndex stream 1, sample 96, offset 43b9d5, dts 98636, size 768, distance 0, keyframe 1
AVIndex stream 1, sample 97, offset 43bcd5, dts 99660, size 768, distance 0, keyframe 1
AVIndex stream 1, sample 98, offset 4a43c5, dts 100684, size 768, distance 0, keyframe 1
AVIndex stream 1, sample 99, offset 4a46c5, dts 101708, size 768, distance 0, keyframe 1
AVIndex stream 1, sample 100, offset 4a49c5, dts 102732, size 768, distance 0, keyframe 1
AVIndex stream 1, sample 101, offset 4a4cc5, dts 103756, size 768, distance 0, keyframe 1
AVIndex stream 1, sample 102, offset 4a4fc5, dts 104780, size 768, distance 0, keyframe 1
AVIndex stream 1, sample 103, offset 4a52c5, dts 105804, size 768, distance 0, keyframe 1
type: 65657266 'free' parent:'root' sz: 400931 4101 4871621
type: 7461646d 'mdat' parent:'root' sz: 4466597 405032 4871621
on_parse_exit_offset=405032
rfps: 29.833333 0.018104
rfps: 29.833333 0.018104
rfps: 29.916667 0.003483
rfps: 30.000000 0.001233
rfps: 60.000000 0.004931
rfps: 120.000000 0.019382
rfps: 29.970030 0.000617
rfps: 59.940060 0.002469
Before avformat_find_stream_info() pos: 405032 bytes read:65536 seeks:1
stream 0, sample 0, dts 0
stream 1, sample 0, dts 0
stream 0, sample 1, dts 33056
stream 1, sample 0, dts 0
stream 0, sample 2, dts 66678
stream 1, sample 0, dts 0
stream 0, sample 3, dts 99767
stream 1, sample 0, dts 0
stream 0, sample 4, dts 133067
stream 1, sample 0, dts 0
stream 0, sample 5, dts 167133
stream 1, sample 0, dts 0
stream 0, sample 6, dts 199856
stream 1, sample 0, dts 0
stream 0, sample 7, dts 233522
stream 1, sample 0, dts 0
stream 0, sample 8, dts 267444
stream 1, sample 0, dts 0
stream 0, sample 9, dts 299922
stream 1, sample 0, dts 0
stream 0, sample 10, dts 333233
stream 1, sample 0, dts 0
stream 0, sample 11, dts 367333
stream 1, sample 0, dts 0
stream 0, sample 12, dts 400011
stream 1, sample 0, dts 0
stream 0, sample 13, dts 433667
stream 1, sample 0, dts 0
stream 0, sample 14, dts 467056
stream 1, sample 0, dts 0
stream 0, sample 15, dts 500400
stream 1, sample 0, dts 0
stream 0, sample 16, dts 533756
stream 1, sample 0, dts 0
stream 0, sample 17, dts 568122
stream 1, sample 0, dts 0
stream 0, sample 18, dts 601244
stream 1, sample 0, dts 0
stream 0, sample 19, dts 633878
stream 1, sample 0, dts 0
stream 0, sample 20, dts 668556
stream 1, sample 0, dts 0
stream 0, sample 21, dts 700622
stream 1, sample 0, dts 0
stream 0, sample 22, dts 733956
stream 1, sample 0, dts 0
stream 0, sample 23, dts 767322
stream 1, sample 0, dts 0
stream 0, sample 24, dts 800289
stream 1, sample 0, dts 0
stream 0, sample 25, dts 834389
stream 1, sample 0, dts 0
stream 0, sample 26, dts 867122
stream 1, sample 0, dts 0
stream 0, sample 27, dts 900900
stream 1, sample 0, dts 0
stream 0, sample 28, dts 934100
stream 1, sample 0, dts 0
stream 0, sample 29, dts 968167
stream 1, sample 0, dts 0
stream 0, sample 30, dts 1001022
stream 1, sample 0, dts 0
All info found
0: start_time: 0.000 duration: 0.612
1: start_time: 0.000 duration: 0.107
stream: start_time: 0.000 duration: 6.804 bitrate=5727 kb/s
After avformat_find_stream_info() pos: 1247626 bytes read:865301 seeks:2 frames:31
av_dump_formatuint8_t *printedInput #0, mov,mp4,m4a,3gp,3g2,mj2, from '/storage/emulated/0/test.mp4':
  Metadata:
    major_brand     : isom
    minor_version   : 0
    compatible_brands: isom3gp4
    creation_time   : 2015-10-09 02:31:59
  Duration: 00:00:06.80, start: 0.000000, bitrate: 5727 kb/s
    Stream #0:0(eng), 30, 1/90000: Video: h264 (Main) (avc1 / 0x31637661), yuv420p, 1280x720, 5157 kb/s, SAR 1:1 DAR 16:9,  (default)
    Metadata:
      rotate          : 90
      creation_time   : 2015-10-09 02:31:59
      handler_name    : VideoHandle
    Side data:
      displaymatrix: rotation of -90.00 degrees
    Stream #0:1(eng), 1, 1/16000: Audio: aac (LC) (mp4a / 0x6134706D), 16000 Hz, mono, fltp, 95 kb/s (default)
    Metadata:
      creation_time   : 2015-10-09 02:31:59
      handler_name    : SoundHandle
Successfully opened the file.
Parsing a group of options: output file /storage/emulated/0/out.mkv.
Successfully parsed a group of options.
Opening an output file: /storage/emulated/0/out.mkv.
Successfully opened the file.
ffmpeg_parse_options()
transcode_init
nb_filtergraphs
init framerate emulation
for each output stream, we compute the right encoding parameters
detected 2 logical cores
Setting 'video_size' to value '1280x720'
Setting 'pix_fmt' to value '0'
Setting 'time_base' to value '1/90000'
Setting 'pixel_aspect' to value '1/1'
Setting 'sws_param' to value 'flags=2'
Setting 'frame_rate' to value '30000/1001'
w:1280 h:720 pixfmt:yuv420p tb:1/90000 fr:30000/1001 sar:1/1 sws_param:flags=2
Setting 'dir' to value 'clock'
compat: called with args=[yuv420p]
Setting 'pix_fmts' to value 'yuv420p'
query_formats: 5 queried, 4 merged, 0 already done, 0 delayed
w:1280 h:720 dir:1 -> w:720 h:1280 rotation:clockwise vflip:0
Setting 'time_base' to value '1/16000'
Setting 'sample_rate' to value '16000'
Setting 'sample_fmt' to value 'fltp'
Setting 'channel_layout' to value '0x4'
tb:1/16000 samplefmt:fltp samplerate:16000 chlayout:0x4
Setting 'sample_fmts' to value 'fltp'
Setting 'channel_layouts' to value '0x4|0x3|0x103|0x7|0x603|0x33|0x107|0x607|0x37|0xc|0xb|0x10b|0xf|0x60b|0x3b|0x10f|0x60f|0x3f'
query_formats: 4 queried, 9 merged, 0 already done, 0 delayed
open each encoder
intra_quant_bias = 0 inter_quant_bias = -64
init input streams
discard unused programs
open files and write file headers
dump the file output parameters - cannot be done before in case of stream copy
av_dump_formatuint8_t *printedOutput #0, matroska, to '/storage/emulated/0/out.mkv':
  Metadata:
    major_brand     : isom
    minor_version   : 0
    compatible_brands: isom3gp4
    encoder         : Lavf57.4.100
    Stream #0:0(eng), 0, 1/1000: Video: mpeg4 (FMP4 / 0x34504D46), yuv420p, 720x1280 [SAR 1:1 DAR 9:16], q=2-31, 200 kb/s,  (default)
    Metadata:
      handler_name    : VideoHandle
      creation_time   : 2015-10-09 02:31:59
      encoder         : Lavc57.6.100 mpeg4
    Stream #0:1(eng), 0, 1/1000: Audio: ac3 ([0] [0][0] / 0x2000), 16000 Hz, mono, fltp, 96 kb/s (default)
    Metadata:
      creation_time   : 2015-10-09 02:31:59
      handler_name    : SoundHandle
      encoder         : Lavc57.6.100 ac3
Stream mapping:
for nb_output_streams
  Stream #0:0 -> #0:0 out_codec_name: mpeg4  encoder_name: native  in_codec_name: h264  (h264 (native) -> mpeg4 (native))
  Stream #0:1 -> #0:1 out_codec_name: ac3  encoder_name: native  in_codec_name: aac  (aac (native) -> ac3 (native))
ret = 0
Press [q] to stop, [?] for help
HAVE_PTHREADS
Cliping frame in rate conversion by 0.000008
Cliping frame in rate conversion by 0.009331
Cliping frame in rate conversion by 0.001671
Cliping frame in rate conversion by 0.009972
Cliping frame in rate conversion by 0.011986
frame=    6 fps=0.0 q=7.0 size=       1kB time=00:00:00.20 bitrate=  46.9kbits/s    Cliping frame in rate conversion by 0.010307
Cliping frame in rate conversion by 0.001335
Cliping frame in rate conversion by 0.011314
Cliping frame in rate conversion by 0.012993
frame=   12 fps= 11 q=24.4 size=       1kB time=00:00:00.40 bitrate=  23.4kbits/s    Cliping frame in rate conversion by 0.011650
Cliping frame in rate conversion by 0.002983
Cliping frame in rate conversion by 0.002312
Cliping frame in rate conversion by 0.002983
Cliping frame in rate conversion by 0.003319
frame=   18 fps= 11 q=31.0 size=       1kB time=00:00:00.60 bitrate=  15.6kbits/s    Cliping frame in rate conversion by 0.002647
Cliping frame in rate conversion by 0.002312
Cliping frame in rate conversion by 0.003319
frame=   23 fps= 10 q=31.0 size=       1kB time=00:00:00.76 bitrate=  12.2kbits/s    Cliping frame in rate conversion by 0.003319
Cliping frame in rate conversion by 0.015312
Cliping frame in rate conversion by 0.012321
frame=   28 fps=9.9 q=31.0 size=       1kB time=00:00:00.93 bitrate=  10.0kbits/s    stream 0, sample 30, dts 1001022
stream 1, sample 1, dts 84750
Cliping frame in rate conversion by 0.004997
stream 0, sample 31, dts 1033833
stream 1, sample 1, dts 84750
stream 0, sample 32, dts 1067722
stream 1, sample 1, dts 84750
stream 0, sample 32, dts 1067722
stream 1, sample 2, dts 148750
Writing block at offset 1187, size 1152, pts 0, dts 0, duration 96, keyframe 1
Writing block at offset 2346, size 25148, pts 16, dts 16, duration 33, keyframe 1
Writing block at offset 27502, size 46204, pts 49, dts 49, duration 33, keyframe 0
Writing block at offset 73714, size 38658, pts 83, dts 83, duration 33, keyframe 0
Writing block at offset 112380, size 40484, pts 116, dts 116, duration 33, keyframe 0
stream 0, sample 32, dts 1067722
stream 1, sample 3, dts 212750
stream 0, sample 32, dts 1067722
stream 1, sample 4, dts 276750
Writing block at offset 152872, size 1152, pts 117, dts 117, duration 96, keyframe 1
Writing block at offset 154031, size 18084, pts 149, dts 149, duration 33, keyframe 0
Writing block at offset 172123, size 17598, pts 183, dts 183, duration 33, keyframe 0
stream 0, sample 32, dts 1067722
stream 1, sample 5, dts 340750
Writing block at offset 189729, size 1152, pts 213, dts 213, duration 96, keyframe 1
Writing block at offset 190888, size 13000, pts 216, dts 216, duration 33, keyframe 0
Writing block at offset 203895, size 9519, pts 250, dts 250, duration 33, keyframe 0
Writing block at offset 213421, size 9028, pts 283, dts 283, duration 33, keyframe 0
stream 0, sample 32, dts 1067722
stream 1, sample 6, dts 404750
stream 0, sample 32, dts 1067722
stream 1, sample 7, dts 468750
Writing block at offset 222456, size 1152, pts 309, dts 309, duration 96, keyframe 1
Writing block at offset 223615, size 6060, pts 316, dts 316, duration 33, keyframe 0
Writing block at offset 229682, size 6433, pts 350, dts 350, duration 33, keyframe 0
Writing block at offset 236122, size 8506, pts 383, dts 383, duration 33, keyframe 0
stream 0, sample 32, dts 1067722
stream 1, sample 8, dts 532750
Starting new cluster at offset 244635 bytes, pts 416dts 416
Writing block at offset 244651, size 1152, pts 405, dts 405, duration 96, keyframe 1
Writing block at offset 245810, size 16209, pts 416, dts 416, duration 33, keyframe 1
Writing block at offset 262026, size 9725, pts 450, dts 450, duration 33, keyframe 0
Writing block at offset 271758, size 10192, pts 483, dts 483, duration 33, keyframe 0
stream 0, sample 32, dts 1067722
stream 1, sample 9, dts 596750
stream 0, sample 32, dts 1067722
stream 1, sample 10, dts 660750
Writing block at offset 281957, size 1152, pts 501, dts 501, duration 96, keyframe 1
Writing block at offset 283116, size 9900, pts 517, dts 517, duration 33, keyframe 0
Writing block at offset 293023, size 10882, pts 550, dts 550, duration 33, keyframe 0
Writing block at offset 303912, size 9650, pts 583, dts 583, duration 33, keyframe 0
stream 0, sample 32, dts 1067722
stream 1, sample 11, dts 724750
Writing block at offset 313569, size 1152, pts 597, dts 597, duration 96, keyframe 1
Writing block at offset 314728, size 9982, pts 617, dts 617, duration 33, keyframe 0
Writing block at offset 324717, size 9880, pts 650, dts 650, duration 33, keyframe 0
Writing block at offset 334604, size 9090, pts 683, dts 683, duration 33, keyframe 0
stream 0, sample 32, dts 1067722
stream 1, sample 12, dts 788750
stream 0, sample 32, dts 1067722
stream 1, sample 13, dts 852750
Writing block at offset 343701, size 1152, pts 693, dts 693, duration 96, keyframe 1
Writing block at offset 344860, size 9506, pts 717, dts 717, duration 33, keyframe 0
Writing block at offset 354373, size 11390, pts 750, dts 750, duration 33, keyframe 0
Writing block at offset 365770, size 6043, pts 783, dts 783, duration 33, keyframe 0
stream 0, sample 32, dts 1067722
stream 1, sample 14, dts 916750
Starting new cluster at offset 371820 bytes, pts 817dts 817
Writing block at offset 371836, size 1152, pts 789, dts 789, duration 96, keyframe 1
Writing block at offset 372995, size 18788, pts 817, dts 817, duration 33, keyframe 1
Writing block at offset 391791, size 3718, pts 850, dts 850, duration 33, keyframe 0
Writing block at offset 395516, size 3565, pts 884, dts 884, duration 33, keyframe 0
stream 0, sample 32, dts 1067722
stream 1, sample 15, dts 980750
stream 0, sample 32, dts 1067722
stream 1, sample 16, dts 1044750
Writing block at offset 399088, size 1152, pts 885, dts 885, duration 96, keyframe 1
Writing block at offset 400247, size 4238, pts 917, dts 917, duration 33, keyframe 0
Writing block at offset 404492, size 4011, pts 950, dts 950, duration 33, keyframe 0
stream 0, sample 32, dts 1067722
stream 1, sample 17, dts 1108750
Writing block at offset 408510, size 1152, pts 981, dts 981, duration 96, keyframe 1
Writing block at offset 409669, size 4231, pts 984, dts 984, duration 33, keyframe 0
stream 0, sample 32, dts 1067722
stream 1, sample 18, dts 1172750
Writing block at offset 413907, size 5876, pts 1017, dts 1017, duration 33, keyframe 0
stream 0, sample 33, dts 1101022
stream 1, sample 18, dts 1172750
Cliping frame in rate conversion by 0.015984
Writing block at offset 419790, size 4437, pts 1050, dts 1050, duration 33, keyframe 0
stream 0, sample 34, dts 1133800
stream 1, sample 18, dts 1172750
Cliping frame in rate conversion by 0.000328
stream 0, sample 35, dts 1167178
stream 1, sample 18, dts 1172750
Cliping frame in rate conversion by 0.002312
stream 0, sample 36, dts 1201478
stream 1, sample 18, dts 1172750
Cliping frame in rate conversion by 0.019981
frame=   35 fps= 10 q=31.0 size=     414kB time=00:00:01.16 bitrate=2905.7kbits/s    stream 0, sample 37, dts 1233889
stream 1, sample 18, dts 1172750
Cliping frame in rate conversion by 0.019646
stream 0, sample 38, dts 1268033
stream 1, sample 18, dts 1172750
stream 0, sample 39, dts 1301356
stream 1, sample 18, dts 1172750
Cliping frame in rate conversion by 0.020317
stream 0, sample 40, dts 1334722
stream 1, sample 18, dts 1172750
stream 0, sample 41, dts 1367411
stream 1, sample 18, dts 1172750
stream 0, sample 42, dts 1400933
stream 1, sample 18, dts 1172750
frame=   41 fps= 10 q=31.0 size=     414kB time=00:00:01.36 bitrate=2480.9kbits/s    stream 0, sample 43, dts 1434122
stream 1, sample 18, dts 1172750
Cliping frame in rate conversion by 0.018639
stream 0, sample 44, dts 1467500
stream 1, sample 18, dts 1172750
Cliping frame in rate conversion by 0.013969
stream 0, sample 45, dts 1500733
stream 1, sample 18, dts 1172750
Cliping frame in rate conversion by 0.019310
stream 0, sample 46, dts 1534200
stream 1, sample 18, dts 1172750
Cliping frame in rate conversion by 0.018974
stream 0, sample 47, dts 1567600
stream 1, sample 18, dts 1172750
Cliping frame in rate conversion by 0.022972
stream 0, sample 48, dts 1601189
stream 1, sample 18, dts 1172750
Cliping frame in rate conversion by 0.019981
stream 0, sample 49, dts 1634200
stream 1, sample 18, dts 1172750
Cliping frame in rate conversion by 0.018974
frame=   48 fps= 11 q=31.0 size=     414kB time=00:00:01.60 bitrate=2118.5kbits/s    stream 0, sample 50, dts 1667667
stream 1, sample 18, dts 1172750
Cliping frame in rate conversion by 0.012321
stream 0, sample 51, dts 1701022
stream 1, sample 18, dts 1172750
Cliping frame in rate conversion by 0.022972
stream 0, sample 52, dts 1734378
stream 1, sample 18, dts 1172750
Cliping frame in rate conversion by 0.019981
stream 0, sample 53, dts 1768167
stream 1, sample 18, dts 1172750
Cliping frame in rate conversion by 0.020317
stream 0, sample 54, dts 1800956
stream 1, sample 18, dts 1172750
Cliping frame in rate conversion by 0.020653
stream 0, sample 55, dts 1837278
stream 1, sample 18, dts 1172750
Cliping frame in rate conversion by 0.007988
stream 0, sample 56, dts 1868767
stream 1, sample 18, dts 1172750
Cliping frame in rate conversion by 0.025291
stream 0, sample 57, dts 1901922
stream 1, sample 18, dts 1172750
frame=   56 fps= 11 q=31.0 size=     414kB time=00:00:01.86 bitrate=1815.9kbits/s    stream 0, sample 58, dts 1938711
stream 1, sample 18, dts 1172750
stream 0, sample 59, dts 1968933
stream 1, sample 18, dts 1172750
stream 0, sample 60, dts 2001900
stream 1, sample 18, dts 1172750
stream 0, sample 61, dts 2035333
stream 1, sample 18, dts 1172750
stream 0, sample 62, dts 2068700
stream 1, sample 18, dts 1172750
stream 0, sample 62, dts 2068700
stream 1, sample 19, dts 1236750
Writing block at offset 424234, size 1152, pts 1077, dts 1077, duration 96, keyframe 1
Writing block at offset 425393, size 4538, pts 1084, dts 1084, duration 33, keyframe 0
Writing block at offset 429938, size 4596, pts 1117, dts 1117, duration 33, keyframe 0
Writing block at offset 434541, size 5083, pts 1150, dts 1150, duration 33, keyframe 0
stream 0, sample 62, dts 2068700
stream 1, sample 20, dts 1300750
Writing block at offset 439631, size 1152, pts 1173, dts 1173, duration 96, keyframe 1
Writing block at offset 440790, size 4723, pts 1184, dts 1184, duration 33, keyframe 0
Starting new cluster at offset 445520 bytes, pts 1217dts 1217
Writing block at offset 445536, size 16124, pts 1217, dts 1217, duration 33, keyframe 1
Writing block at offset 461667, size 4497, pts 1251, dts 1251, duration 33, keyframe 0
stream 0, sample 62, dts 2068700
stream 1, sample 21, dts 1364750
stream 0, sample 62, dts 2068700
stream 1, sample 22, dts 1428750
Writing block at offset 466171, size 1152, pts 1269, dts 1269, duration 96, keyframe 1
Writing block at offset 467330, size 4709, pts 1284, dts 1284, duration 33, keyframe 0
Writing block at offset 472046, size 5398, pts 1317, dts 1317, duration 33, keyframe 0
Writing block at offset 477451, size 5441, pts 1351, dts 1351, duration 33, keyframe 0
stream 0, sample 62, dts 2068700
stream 1, sample 23, dts 1492750
Writing block at offset 482899, size 1152, pts 1365, dts 1365, duration 96, keyframe 1
Writing block at offset 484058, size 6495, pts 1384, dts 1384, duration 33, keyframe 0
Writing block at offset 490560, size 5993, pts 1417, dts 1417, duration 33, keyframe 0
Writing block at offset 496560, size 5763, pts 1451, dts 1451, duration 33, keyframe 0
stream 0, sample 62, dts 2068700
stream 1, sample 24, dts 1556750
stream 0, sample 62, dts 2068700
stream 1, sample 25, dts 1620750
Writing block at offset 502330, size 1152, pts 1461, dts 1461, duration 96, keyframe 1
Writing block at offset 503489, size 7504, pts 1484, dts 1484, duration 33, keyframe 0
Writing block at offset 511000, size 9517, pts 1518, dts 1518, duration 33, keyframe 0
Writing block at offset 520524, size 5948, pts 1551, dts 1551, duration 33, keyframe 0
stream 0, sample 62, dts 2068700
stream 1, sample 26, dts 1684750
Writing block at offset 526479, size 1152, pts 1557, dts 1557, duration 96, keyframe 1
Writing block at offset 527638, size 7722, pts 1584, dts 1584, duration 33, keyframe 0
Starting new cluster at offset 535367 bytes, pts 1618dts 1618
Writing block at offset 535383, size 16256, pts 1618, dts 1618, duration 33, keyframe 1
Writing block at offset 551646, size 7163, pts 1651, dts 1651, duration 33, keyframe 0
stream 0, sample 62, dts 2068700
stream 1, sample 27, dts 1748750
stream 0, sample 62, dts 2068700
stream 1, sample 28, dts 1812750
Writing block at offset 558816, size 1152, pts 1653, dts 1653, duration 96, keyframe 1
Writing block at offset 559975, size 7261, pts 1684, dts 1684, duration 33, keyframe 0
Writing block at offset 567243, size 7028, pts 1718, dts 1718, duration 33, keyframe 0
stream 0, sample 62, dts 2068700
stream 1, sample 29, dts 1876750
Writing block at offset 574278, size 1152, pts 1749, dts 1749, duration 96, keyframe 1
Writing block at offset 575437, size 8031, pts 1751, dts 1751, duration 33, keyframe 0
Writing block at offset 583475, size 8149, pts 1784, dts 1784, duration 33, keyframe 0
Writing block at offset 591631, size 8478, pts 1818, dts 1818, duration 33, keyframe 0
stream 0, sample 62, dts 2068700
stream 1, sample 30, dts 1940750
stream 0, sample 62, dts 2068700
stream 1, sample 31, dts 2004750
Writing block at offset 600116, size 1152, pts 1845, dts 1845, duration 96, keyframe 1
Writing block at offset 601275, size 9831, pts 1851, dts 1851, duration 33, keyframe 0
Writing block at offset 611113, size 10189, pts 1885, dts 1885, duration 33, keyframe 0
Writing block at offset 621309, size 9567, pts 1918, dts 1918, duration 33, keyframe 0
stream 0, sample 62, dts 2068700
stream 1, sample 32, dts 2068750
Writing block at offset 630883, size 1152, pts 1941, dts 1941, duration 96, keyframe 1
Writing block at offset 632042, size 9750, pts 1951, dts 1951, duration 33, keyframe 0
Writing block at offset 641799, size 8767, pts 1985, dts 1985, duration 33, keyframe 0
stream 0, sample 62, dts 2068700
stream 1, sample 33, dts 2132750
stream 0, sample 62, dts 2068700
stream 1, sample 34, dts 2196750
Cliping frame in rate conversion by 0.002983
Starting new cluster at offset 650573 bytes, pts 2018dts 2018
Writing block at offset 650589, size 15191, pts 2018, dts 2018, duration 33, keyframe 1
stream 0, sample 63, dts 2103300
stream 1, sample 34, dts 2196750
Cliping frame in rate conversion by 0.000999
frame=   62 fps= 11 q=31.0 size=     650kB time=00:00:02.11 bitrate=2516.0kbits/s    stream 0, sample 64, dts 2135411
stream 1, sample 34, dts 2196750
Cliping frame in rate conversion by 0.000999
stream 0, sample 65, dts 2168378
stream 1, sample 34, dts 2196750
stream 0, sample 66, dts 2201967
stream 1, sample 34, dts 2196750
Cliping frame in rate conversion by 0.001671
stream 0, sample 67, dts 2235122
stream 1, sample 34, dts 2196750
Cliping frame in rate conversion by 0.013634
stream 0, sample 68, dts 2268489
stream 1, sample 34, dts 2196750
Cliping frame in rate conversion by 0.006981
stream 0, sample 69, dts 2301878
stream 1, sample 34, dts 2196750
Cliping frame in rate conversion by 0.013298
stream 0, sample 70, dts 2335200
stream 1, sample 34, dts 2196750
Cliping frame in rate conversion by 0.013298
frame=   69 fps= 11 q=31.0 size=     650kB time=00:00:02.30 bitrate=2313.8kbits/s    stream 0, sample 71, dts 2368111
stream 1, sample 34, dts 2196750
Cliping frame in rate conversion by 0.012657
stream 0, sample 72, dts 2405500
stream 1, sample 34, dts 2196750
Cliping frame in rate conversion by 0.013969
stream 0, sample 73, dts 2434756
stream 1, sample 34, dts 2196750
Cliping frame in rate conversion by 0.027641
stream 0, sample 74, dts 2468122
stream 1, sample 34, dts 2196750
stream 0, sample 75, dts 2501467
stream 1, sample 34, dts 2196750
Cliping frame in rate conversion by 0.030296
stream 0, sample 76, dts 2534900
stream 1, sample 34, dts 2196750
Cliping frame in rate conversion by 0.030296
stream 0, sample 77, dts 2568989
stream 1, sample 34, dts 2196750
Cliping frame in rate conversion by 0.030968
stream 0, sample 78, dts 2602478
stream 1, sample 34, dts 2196750
Cliping frame in rate conversion by 0.028954
frame=   77 fps= 12 q=31.0 size=     650kB time=00:00:02.56 bitrate=2073.3kbits/s    stream 0, sample 79, dts 2635956
stream 1, sample 34, dts 2196750
Cliping frame in rate conversion by 0.007317
stream 0, sample 80, dts 2669133
stream 1, sample 34, dts 2196750
Cliping frame in rate conversion by 0.003654
stream 0, sample 81, dts 2702756
stream 1, sample 34, dts 2196750
Cliping frame in rate conversion by 0.000328
stream 0, sample 82, dts 2737089
stream 1, sample 34, dts 2196750
Cliping frame in rate conversion by 0.005974
stream 0, sample 83, dts 2769167
stream 1, sample 34, dts 2196750
stream 0, sample 84, dts 2803100
stream 1, sample 34, dts 2196750
stream 0, sample 85, dts 2837322
stream 1, sample 34, dts 2196750
Cliping frame in rate conversion by 0.007988
stream 0, sample 86, dts 2872533
stream 1, sample 34, dts 2196750
stream 0, sample 87, dts 2901900
stream 1, sample 34, dts 2196750
frame=   86 fps= 12 q=31.0 size=     650kB time=00:00:02.87 bitrate=1855.9kbits/s    stream 0, sample 88, dts 2935289
stream 1, sample 34, dts 2196750
stream 0, sample 89, dts 2968556
stream 1, sample 34, dts 2196750
Cliping frame in rate conversion by 0.029961
stream 0, sample 90, dts 3002356
stream 1, sample 34, dts 2196750
Cliping frame in rate conversion by 0.029289
stream 0, sample 91, dts 3035667
stream 1, sample 34, dts 2196750
Cliping frame in rate conversion by 0.032280
stream 0, sample 92, dts 3068633
stream 1, sample 34, dts 2196750
Writing block at offset 665787, size 1152, pts 2037, dts 2037, duration 96, keyframe 1
Writing block at offset 666946, size 6023, pts 2051, dts 2051, duration 33, keyframe 0
Writing block at offset 672976, size 8289, pts 2085, dts 2085, duration 33, keyframe 0
Writing block at offset 681272, size 8594, pts 2118, dts 2118, duration 33, keyframe 0
stream 0, sample 92, dts 3068633
stream 1, sample 35, dts 2260750
Writing block at offset 689873, size 1152, pts 2133, dts 2133, duration 96, keyframe 1
Writing block at offset 691032, size 8006, pts 2151, dts 2151, duration 33, keyframe 0
Writing block at offset 699045, size 5784, pts 2185, dts 2185, duration 33, keyframe 0
Writing block at offset 704836, size 6418, pts 2218, dts 2218, duration 33, keyframe 0
stream 0, sample 92, dts 3068633
stream 1, sample 36, dts 2324750
stream 0, sample 92, dts 3068633
stream 1, sample 37, dts 2388750
Writing block at offset 711261, size 1152, pts 2229, dts 2229, duration 96, keyframe 1
Writing block at offset 712420, size 6072, pts 2252, dts 2252, duration 33, keyframe 0
Writing block at offset 718499, size 5051, pts 2285, dts 2285, duration 33, keyframe 0
Writing block at offset 723557, size 4909, pts 2318, dts 2318, duration 33, keyframe 0
stream 0, sample 92, dts 3068633
stream 1, sample 38, dts 2452750
Writing block at offset 728473, size 1152, pts 2325, dts 2325, duration 96, keyframe 1
Writing block at offset 729632, size 4690, pts 2352, dts 2352, duration 33, keyframe 0
Writing block at offset 734329, size 3560, pts 2385, dts 2385, duration 33, keyframe 0
Starting new cluster at offset 737896 bytes, pts 2418dts 2418
Writing block at offset 737912, size 16442, pts 2418, dts 2418, duration 33, keyframe 1
stream 0, sample 92, dts 3068633
stream 1, sample 39, dts 2516750
stream 0, sample 92, dts 3068633
stream 1, sample 40, dts 2580750
Writing block at offset 754362, size 1152, pts 2421, dts 2421, duration 96, keyframe 1
Writing block at offset 755521, size 3139, pts 2452, dts 2452, duration 33, keyframe 0
Writing block at offset 758667, size 2741, pts 2485, dts 2485, duration 33, keyframe 0
stream 0, sample 92, dts 3068633
stream 1, sample 41, dts 2644750
Writing block at offset 761415, size 1152, pts 2517, dts 2517, duration 96, keyframe 1
Writing block at offset 762574, size 2703, pts 2519, dts 2519, duration 33, keyframe 0
Writing block at offset 765284, size 3710, pts 2552, dts 2552, duration 33, keyframe 0
Writing block at offset 769001, size 3634, pts 2585, dts 2585, duration 33, keyframe 0
stream 0, sample 92, dts 3068633
stream 1, sample 42, dts 2708750
stream 0, sample 92, dts 3068633
stream 1, sample 43, dts 2772750
Writing block at offset 772642, size 1152, pts 2613, dts 2613, duration 96, keyframe 1
Writing block at offset 773801, size 2777, pts 2619, dts 2619, duration 33, keyframe 0
Writing block at offset 776585, size 3623, pts 2652, dts 2652, duration 33, keyframe 0
Writing block at offset 780215, size 3584, pts 2685, dts 2685, duration 33, keyframe 0
stream 0, sample 92, dts 3068633
stream 1, sample 44, dts 2836750
Writing block at offset 783806, size 1152, pts 2709, dts 2709, duration 96, keyframe 1
Writing block at offset 784965, size 3554, pts 2719, dts 2719, duration 33, keyframe 0
Writing block at offset 788526, size 3283, pts 2752, dts 2752, duration 33, keyframe 0
Writing block at offset 791816, size 3151, pts 2785, dts 2785, duration 33, keyframe 0
stream 0, sample 92, dts 3068633
stream 1, sample 45, dts 2900750
stream 0, sample 92, dts 3068633
stream 1, sample 46, dts 2964750
Starting new cluster at offset 794974 bytes, pts 2819dts 2819
Writing block at offset 794990, size 1152, pts 2805, dts 2805, duration 96, keyframe 1
Writing block at offset 796149, size 16686, pts 2819, dts 2819, duration 33, keyframe 1
Writing block at offset 812843, size 2400, pts 2852, dts 2852, duration 33, keyframe 0
Writing block at offset 815250, size 2095, pts 2886, dts 2886, duration 33, keyframe 0
stream 0, sample 92, dts 3068633
stream 1, sample 47, dts 3028750
Writing block at offset 817352, size 1152, pts 2901, dts 2901, duration 96, keyframe 1
Writing block at offset 818511, size 1951, pts 2919, dts 2919, duration 33, keyframe 0
Writing block at offset 820469, size 1933, pts 2952, dts 2952, duration 33, keyframe 0
Writing block at offset 822409, size 2210, pts 2986, dts 2986, duration 33, keyframe 0
stream 0, sample 92, dts 3068633
stream 1, sample 48, dts 3092750
stream 0, sample 92, dts 3068633
stream 1, sample 49, dts 3156750
stream 0, sample 92, dts 3068633
stream 1, sample 50, dts 3220750
Cliping frame in rate conversion by 0.019310
Writing block at offset 824626, size 1152, pts 2997, dts 2997, duration 96, keyframe 1
Writing block at offset 825785, size 3420, pts 3019, dts 3019, duration 33, keyframe 0
stream 0, sample 93, dts 3101956
stream 1, sample 50, dts 3220750
Cliping frame in rate conversion by 0.020958
Writing block at offset 829212, size 2981, pts 3052, dts 3052, duration 33, keyframe 0
stream 0, sample 94, dts 3135256
stream 1, sample 50, dts 3220750
Cliping frame in rate conversion by 0.032951
Writing block at offset 832200, size 2692, pts 3086, dts 3086, duration 33, keyframe 0
stream 0, sample 95, dts 3169078
stream 1, sample 50, dts 3220750
Cliping frame in rate conversion by 0.034294
frame=   94 fps= 12 q=31.0 size=     815kB time=00:00:03.17 bitrate=2105.0kbits/s    stream 0, sample 96, dts 3201989
stream 1, sample 50, dts 3220750
Cliping frame in rate conversion by 0.036278
stream 0, sample 97, dts 3235333
stream 1, sample 50, dts 3220750
Cliping frame in rate conversion by 0.022636
stream 0, sample 98, dts 3269233
stream 1, sample 50, dts 3220750
Cliping frame in rate conversion by 0.036278
stream 0, sample 99, dts 3302611
stream 1, sample 50, dts 3220750
Cliping frame in rate conversion by 0.036949
stream 0, sample 100, dts 3337156
stream 1, sample 50, dts 3220750
Cliping frame in rate conversion by 0.020958
stream 0, sample 101, dts 3368911
stream 1, sample 50, dts 3220750
Cliping frame in rate conversion by 0.020653
stream 0, sample 102, dts 3403356
stream 1, sample 50, dts 3220750
stream 0, sample 103, dts 3435678
stream 1, sample 50, dts 3220750
Cliping frame in rate conversion by 0.033623
frame=  102 fps= 12 q=31.0 size=     815kB time=00:00:03.40 bitrate=1962.7kbits/s    stream 0, sample 104, dts 3469667
stream 1, sample 50, dts 3220750
Cliping frame in rate conversion by 0.001335
stream 0, sample 105, dts 3503244
stream 1, sample 50, dts 3220750
Cliping frame in rate conversion by 0.032616
stream 0, sample 106, dts 3536422
stream 1, sample 50, dts 3220750
Cliping frame in rate conversion by 0.013969
stream 0, sample 107, dts 3569078
stream 1, sample 50, dts 3220750
Cliping frame in rate conversion by 0.007652
stream 0, sample 108, dts 3603178
stream 1, sample 50, dts 3220750
Cliping frame in rate conversion by 0.013298
stream 0, sample 109, dts 3636578
stream 1, sample 50, dts 3220750
Cliping frame in rate conversion by 0.034630
stream 0, sample 110, dts 3670044
stream 1, sample 50, dts 3220750
Cliping frame in rate conversion by 0.012657
stream 0, sample 111, dts 3703233
stream 1, sample 50, dts 3220750
Cliping frame in rate conversion by 0.011650
stream 0, sample 112, dts 3736589
stream 1, sample 50, dts 3220750
Cliping frame in rate conversion by 0.008659
stream 0, sample 113, dts 3769889
stream 1, sample 50, dts 3220750
Cliping frame in rate conversion by 0.013969
frame=  112 fps= 13 q=31.0 size=     815kB time=00:00:03.73 bitrate=1787.3kbits/s    stream 0, sample 114, dts 3803267
stream 1, sample 50, dts 3220750
Cliping frame in rate conversion by 0.014305
stream 0, sample 115, dts 3836578
stream 1, sample 50, dts 3220750
Cliping frame in rate conversion by 0.016319
stream 0, sample 116, dts 3869967
stream 1, sample 50, dts 3220750
Cliping frame in rate conversion by 0.015984
stream 0, sample 117, dts 3902678
stream 1, sample 50, dts 3220750
Cliping frame in rate conversion by 0.017632
stream 0, sample 118, dts 3937344
stream 1, sample 50, dts 3220750
Cliping frame in rate conversion by 0.016960
stream 0, sample 119, dts 3969700
stream 1, sample 50, dts 3220750
Cliping frame in rate conversion by 0.036613
stream 0, sample 120, dts 4003033
stream 1, sample 50, dts 3220750
stream 0, sample 121, dts 4037933
stream 1, sample 50, dts 3220750
Cliping frame in rate conversion by 0.027977
stream 0, sample 122, dts 4070322
stream 1, sample 50, dts 3220750
Writing block at offset 834899, size 1152, pts 3093, dts 3093, duration 96, keyframe 1
Writing block at offset 836058, size 3038, pts 3119, dts 3119, duration 33, keyframe 0
Writing block at offset 839103, size 2805, pts 3152, dts 3152, duration 33, keyframe 0
Writing block at offset 841915, size 3069, pts 3186, dts 3186, duration 33, keyframe 0
stream 0, sample 122, dts 4070322
stream 1, sample 51, dts 3284750
stream 0, sample 122, dts 4070322
stream 1, sample 52, dts 3348750
Starting new cluster at offset 844991 bytes, pts 3219dts 3219
Writing block at offset 845007, size 1152, pts 3189, dts 3189, duration 96, keyframe 1
Writing block at offset 846166, size 16159, pts 3219, dts 3219, duration 33, keyframe 1
Writing block at offset 862332, size 3187, pts 3253, dts 3253, duration 33, keyframe 0
frame=  120 fps= 13 q=31.0 size=     845kB time=00:00:04.00 bitrate=1729.3kbits/s    stream 0, sample 122, dts 4070322
stream 1, sample 53, dts 3412750
Writing block at offset 865526, size 1152, pts 3285, dts 3285, duration 96, keyframe 1
Writing block at offset 866685, size 2894, pts 3286, dts 3286, duration 33, keyframe 0
Writing block at offset 869586, size 3707, pts 3319, dts 3319, duration 33, keyframe 0
Writing block at offset 873300, size 4049, pts 3353, dts 3353, duration 33, keyframe 0
stream 0, sample 122, dts 4070322
stream 1, sample 54, dts 3476750
stream 0, sample 122, dts 4070322
stream 1, sample 55, dts 3540750
Writing block at offset 877356, size 1152, pts 3381, dts 3381, duration 96, keyframe 1
Writing block at offset 878515, size 4243, pts 3386, dts 3386, duration 33, keyframe 0
Writing block at offset 882765, size 4976, pts 3419, dts 3419, duration 33, keyframe 0
Writing block at offset 887748, size 4335, pts 3453, dts 3453, duration 33, keyframe 0
stream 0, sample 122, dts 4070322
stream 1, sample 56, dts 3604750
Writing block at offset 892090, size 1152, pts 3477, dts 3477, duration 96, keyframe 1
Writing block at offset 893249, size 4328, pts 3486, dts 3486, duration 33, keyframe 0
Writing block at offset 897584, size 4488, pts 3520, dts 3520, duration 33, keyframe 0
Writing block at offset 902079, size 4203, pts 3553, dts 3553, duration 33, keyframe 0
stream 0, sample 122, dts 4070322
stream 1, sample 57, dts 3668750
stream 0, sample 122, dts 4070322
stream 1, sample 58, dts 3732750
Writing block at offset 906289, size 1152, pts 3573, dts 3573, duration 96, keyframe 1
Writing block at offset 907448, size 4755, pts 3586, dts 3586, duration 33, keyframe 0
Starting new cluster at offset 912210 bytes, pts 3620dts 3620
Writing block at offset 912226, size 16151, pts 3620, dts 3620, duration 33, keyframe 1
Writing block at offset 928384, size 5561, pts 3653, dts 3653, duration 33, keyframe 0
stream 0, sample 122, dts 4070322
stream 1, sample 59, dts 3796750
Writing block at offset 933952, size 1152, pts 3669, dts 3669, duration 96, keyframe 1
Writing block at offset 935111, size 5168, pts 3686, dts 3686, duration 33, keyframe 0
Writing block at offset 940286, size 6958, pts 3720, dts 3720, duration 33, keyframe 0
Writing block at offset 947251, size 7149, pts 3753, dts 3753, duration 33, keyframe 0
stream 0, sample 122, dts 4070322
stream 1, sample 60, dts 3860750
stream 0, sample 122, dts 4070322
stream 1, sample 61, dts 3924750
Writing block at offset 954407, size 1152, pts 3765, dts 3765, duration 96, keyframe 1
Writing block at offset 955566, size 6256, pts 3786, dts 3786, duration 33, keyframe 0
Writing block at offset 961829, size 7445, pts 3820, dts 3820, duration 33, keyframe 0
Writing block at offset 969281, size 7572, pts 3853, dts 3853, duration 33, keyframe 0
stream 0, sample 122, dts 4070322
stream 1, sample 62, dts 3988750
Writing block at offset 976860, size 1152, pts 3861, dts 3861, duration 96, keyframe 1
Writing block at offset 978019, size 6858, pts 3887, dts 3887, duration 33, keyframe 0
Writing block at offset 984884, size 6752, pts 3920, dts 3920, duration 33, keyframe 0
Writing block at offset 991643, size 8455, pts 3953, dts 3953, duration 33, keyframe 0
stream 0, sample 122, dts 4070322
stream 1, sample 63, dts 4052750
stream 0, sample 122, dts 4070322
stream 1, sample 64, dts 4116750
Writing block at offset 1000105, size 1152, pts 3957, dts 3957, duration 96, keyframe 1
Writing block at offset 1001264, size 6097, pts 3987, dts 3987, duration 33, keyframe 0
stream 0, sample 122, dts 4070322
stream 1, sample 65, dts 4180750
stream 0, sample 122, dts 4070322
stream 1, sample 66, dts 4244750
Cliping frame in rate conversion by 0.028954
Starting new cluster at offset 1007368 bytes, pts 4020dts 4020
Writing block at offset 1007384, size 17561, pts 4020, dts 4020, duration 33, keyframe 1
stream 0, sample 123, dts 4102700
stream 1, sample 66, dts 4244750
Writing block at offset 1024953, size 5686, pts 4053, dts 4053, duration 33, keyframe 0
stream 0, sample 124, dts 4136811
stream 1, sample 66, dts 4244750
Cliping frame in rate conversion by 0.012321
Writing block at offset 1030646, size 1152, pts 4053, dts 4053, duration 96, keyframe 1
Writing block at offset 1031805, size 5681, pts 4087, dts 4087, duration 33, keyframe 0
stream 0, sample 125, dts 4169533
stream 1, sample 66, dts 4244750
Cliping frame in rate conversion by 0.041954
Writing block at offset 1037493, size 5662, pts 4120, dts 4120, duration 33, keyframe 0
stream 0, sample 126, dts 4202878
stream 1, sample 66, dts 4244750
Cliping frame in rate conversion by 0.019646
stream 0, sample 127, dts 4237756
stream 1, sample 66, dts 4244750
Cliping frame in rate conversion by 0.038963
stream 0, sample 128, dts 4269833
stream 1, sample 66, dts 4244750
Cliping frame in rate conversion by 0.039604
stream 0, sample 129, dts 4303778
stream 1, sample 66, dts 4244750
stream 0, sample 130, dts 4337389
stream 1, sample 66, dts 4244750
Cliping frame in rate conversion by 0.032951
frame=  129 fps= 13 q=31.0 size=    1019kB time=00:00:04.30 bitrate=1939.0kbits/s    stream 0, sample 131, dts 4370333
stream 1, sample 66, dts 4244750
Cliping frame in rate conversion by 0.015648
stream 0, sample 132, dts 4403489
stream 1, sample 66, dts 4244750
Cliping frame in rate conversion by 0.008324
stream 0, sample 133, dts 4437256
stream 1, sample 66, dts 4244750
Cliping frame in rate conversion by 0.020958
stream 0, sample 134, dts 4470456
stream 1, sample 66, dts 4244750
Cliping frame in rate conversion by 0.027306
stream 0, sample 135, dts 4504589
stream 1, sample 66, dts 4244750
Cliping frame in rate conversion by 0.015312
stream 0, sample 136, dts 4538100
stream 1, sample 66, dts 4244750
Cliping frame in rate conversion by 0.020317
stream 0, sample 137, dts 4569856
stream 1, sample 66, dts 4244750
stream 0, sample 138, dts 4603222
stream 1, sample 66, dts 4244750
stream 0, sample 139, dts 4637300
stream 1, sample 66, dts 4244750
Cliping frame in rate conversion by 0.041283
frame=  138 fps= 13 q=31.0 size=    1019kB time=00:00:04.60 bitrate=1812.2kbits/s    stream 0, sample 140, dts 4669911
stream 1, sample 66, dts 4244750
Cliping frame in rate conversion by 0.041283
stream 0, sample 141, dts 4703278
stream 1, sample 66, dts 4244750
Cliping frame in rate conversion by 0.019981
stream 0, sample 142, dts 4739189
stream 1, sample 66, dts 4244750
Cliping frame in rate conversion by 0.042625
stream 0, sample 143, dts 4770311
stream 1, sample 66, dts 4244750
Cliping frame in rate conversion by 0.042625
stream 0, sample 144, dts 4803244
stream 1, sample 66, dts 4244750
stream 0, sample 145, dts 4836989
stream 1, sample 66, dts 4244750
Cliping frame in rate conversion by 0.033623
stream 0, sample 146, dts 4870400
stream 1, sample 66, dts 4244750
Cliping frame in rate conversion by 0.046623
frame=  145 fps= 13 q=24.8 size=    1019kB time=00:00:04.83 bitrate=1724.9kbits/s    stream 0, sample 147, dts 4903900
stream 1, sample 66, dts 4244750
Cliping frame in rate conversion by 0.035301
stream 0, sample 148, dts 4937133
stream 1, sample 66, dts 4244750
Cliping frame in rate conversion by 0.033958
stream 0, sample 149, dts 4970511
stream 1, sample 66, dts 4244750
Cliping frame in rate conversion by 0.029961
stream 0, sample 150, dts 5003411
stream 1, sample 66, dts 4244750
Cliping frame in rate conversion by 0.033958
stream 0, sample 151, dts 5037722
stream 1, sample 66, dts 4244750
Cliping frame in rate conversion by 0.033623
stream 0, sample 152, dts 5070567
stream 1, sample 66, dts 4244750
Cliping frame in rate conversion by 0.047600
stream 0, sample 153, dts 5103967
stream 1, sample 66, dts 4244750
stream 0, sample 153, dts 5103967
stream 1, sample 67, dts 4308750
Writing block at offset 1043162, size 1152, pts 4149, dts 4149, duration 96, keyframe 1
Writing block at offset 1044321, size 7242, pts 4153, dts 4153, duration 33, keyframe 0
Writing block at offset 1051570, size 5330, pts 4187, dts 4187, duration 33, keyframe 0
Writing block at offset 1056907, size 5551, pts 4220, dts 4220, duration 33, keyframe 0
stream 0, sample 153, dts 5103967
stream 1, sample 68, dts 4372750
Writing block at offset 1062465, size 1152, pts 4245, dts 4245, duration 96, keyframe 1
Writing block at offset 1063624, size 4911, pts 4254, dts 4254, duration 33, keyframe 0
Writing block at offset 1068542, size 5294, pts 4287, dts 4287, duration 33, keyframe 0
Writing block at offset 1073843, size 3469, pts 4320, dts 4320, duration 33, keyframe 0
frame=  151 fps= 13 q=31.0 size=    1052kB time=00:00:05.03 bitrate=1710.7kbits/s    stream 0, sample 153, dts 5103967
stream 1, sample 69, dts 4436750
stream 0, sample 153, dts 5103967
stream 1, sample 70, dts 4500750
Writing block at offset 1077319, size 1152, pts 4341, dts 4341, duration 96, keyframe 1
Writing block at offset 1078478, size 4094, pts 4354, dts 4354, duration 33, keyframe 0
Writing block at offset 1082579, size 3950, pts 4387, dts 4387, duration 33, keyframe 0
Starting new cluster at offset 1086536 bytes, pts 4420dts 4420
Writing block at offset 1086552, size 20756, pts 4420, dts 4420, duration 33, keyframe 1
stream 0, sample 153, dts 5103967
stream 1, sample 71, dts 4564750
Writing block at offset 1107316, size 1152, pts 4437, dts 4437, duration 96, keyframe 1
Writing block at offset 1108475, size 2381, pts 4454, dts 4454, duration 33, keyframe 0
Writing block at offset 1110863, size 2689, pts 4487, dts 4487, duration 33, keyframe 0
Writing block at offset 1113559, size 2667, pts 4521, dts 4521, duration 33, keyframe 0
stream 0, sample 153, dts 5103967
stream 1, sample 72, dts 4628750
stream 0, sample 153, dts 5103967
stream 1, sample 73, dts 4692750
Writing block at offset 1116233, size 1152, pts 4533, dts 4533, duration 96, keyframe 1
Writing block at offset 1117392, size 2555, pts 4554, dts 4554, duration 33, keyframe 0
Writing block at offset 1119954, size 2633, pts 4587, dts 4587, duration 33, keyframe 0
Writing block at offset 1122594, size 2994, pts 4621, dts 4621, duration 33, keyframe 0
stream 0, sample 153, dts 5103967
stream 1, sample 74, dts 4756750
Writing block at offset 1125595, size 1152, pts 4629, dts 4629, duration 96, keyframe 1
Writing block at offset 1126754, size 2920, pts 4654, dts 4654, duration 33, keyframe 0
Writing block at offset 1129681, size 3247, pts 4687, dts 4687, duration 33, keyframe 0
Writing block at offset 1132935, size 3872, pts 4721, dts 4721, duration 33, keyframe 0
stream 0, sample 153, dts 5103967
stream 1, sample 75, dts 4820750
stream 0, sample 153, dts 5103967
stream 1, sample 76, dts 4884750
Writing block at offset 1136814, size 1152, pts 4725, dts 4725, duration 96, keyframe 1
Writing block at offset 1137973, size 5113, pts 4754, dts 4754, duration 33, keyframe 0
Writing block at offset 1143093, size 4442, pts 4787, dts 4787, duration 33, keyframe 0
Starting new cluster at offset 1147542 bytes, pts 4821dts 4821
Writing block at offset 1147558, size 16688, pts 4821, dts 4821, duration 33, keyframe 1
stream 0, sample 153, dts 5103967
stream 1, sample 77, dts 4948750
Writing block at offset 1164254, size 1152, pts 4821, dts 4821, duration 96, keyframe 1
Writing block at offset 1165413, size 3503, pts 4854, dts 4854, duration 33, keyframe 0
Writing block at offset 1168923, size 3700, pts 4888, dts 4888, duration 33, keyframe 0
stream 0, sample 153, dts 5103967
stream 1, sample 78, dts 5012750
stream 0, sample 153, dts 5103967
stream 1, sample 79, dts 5076750
Writing block at offset 1172630, size 1152, pts 4917, dts 4917, duration 96, keyframe 1
Writing block at offset 1173789, size 3554, pts 4921, dts 4921, duration 33, keyframe 0
Writing block at offset 1177350, size 4328, pts 4954, dts 4954, duration 33, keyframe 0
Writing block at offset 1181685, size 4359, pts 4988, dts 4988, duration 33, keyframe 0
stream 0, sample 153, dts 5103967
stream 1, sample 80, dts 5140750
Writing block at offset 1186051, size 1152, pts 5013, dts 5013, duration 96, keyframe 1
Writing block at offset 1187210, size 5267, pts 5021, dts 5021, duration 33, keyframe 0
stream 0, sample 153, dts 5103967
stream 1, sample 81, dts 5204750
stream 0, sample 153, dts 5103967
stream 1, sample 82, dts 5268750
Cliping frame in rate conversion by 0.019310
Writing block at offset 1192484, size 4663, pts 5054, dts 5054, duration 33, keyframe 0
stream 0, sample 154, dts 5137544
stream 1, sample 82, dts 5268750
Cliping frame in rate conversion by 0.034966
Writing block at offset 1197154, size 4093, pts 5088, dts 5088, duration 33, keyframe 0
stream 0, sample 155, dts 5170644
stream 1, sample 82, dts 5268750
Cliping frame in rate conversion by 0.033958
stream 0, sample 156, dts 5204033
stream 1, sample 82, dts 5268750
Cliping frame in rate conversion by 0.027641
stream 0, sample 157, dts 5238122
stream 1, sample 82, dts 5268750
Cliping frame in rate conversion by 0.035637
stream 0, sample 158, dts 5270722
stream 1, sample 82, dts 5268750
Cliping frame in rate conversion by 0.034966
stream 0, sample 159, dts 5304122
stream 1, sample 82, dts 5268750
Cliping frame in rate conversion by 0.013298
frame=  158 fps= 13 q=31.0 size=    1173kB time=00:00:05.27 bitrate=1822.8kbits/s    stream 0, sample 160, dts 5337467
stream 1, sample 82, dts 5268750
Cliping frame in rate conversion by 0.036278
stream 0, sample 161, dts 5370856
stream 1, sample 82, dts 5268750
Cliping frame in rate conversion by 0.035301
stream 0, sample 162, dts 5404111
stream 1, sample 82, dts 5268750
Cliping frame in rate conversion by 0.035942
stream 0, sample 163, dts 5437778
stream 1, sample 82, dts 5268750
Cliping frame in rate conversion by 0.035301
stream 0, sample 164, dts 5470989
stream 1, sample 82, dts 5268750
Cliping frame in rate conversion by 0.038628
stream 0, sample 165, dts 5503767
stream 1, sample 82, dts 5268750
Cliping frame in rate conversion by 0.029625
frame=  164 fps= 13 q=31.0 size=    1173kB time=00:00:05.47 bitrate=1756.2kbits/s    stream 0, sample 166, dts 5537056
stream 1, sample 82, dts 5268750
Cliping frame in rate conversion by 0.034294
stream 0, sample 167, dts 5571322
stream 1, sample 82, dts 5268750
Cliping frame in rate conversion by 0.051933
stream 0, sample 168, dts 5603833
stream 1, sample 82, dts 5268750
Cliping frame in rate conversion by 0.054283
stream 0, sample 169, dts 5637656
stream 1, sample 82, dts 5268750
Cliping frame in rate conversion by 0.027306
stream 0, sample 170, dts 5670556
stream 1, sample 82, dts 5268750
Cliping frame in rate conversion by 0.052940
frame=  169 fps= 13 q=24.8 size=    1173kB time=00:00:05.63 bitrate=1704.2kbits/s    stream 0, sample 171, dts 5703922
stream 1, sample 82, dts 5268750
Cliping frame in rate conversion by 0.039299
stream 0, sample 172, dts 5737389
stream 1, sample 82, dts 5268750
Cliping frame in rate conversion by 0.053276
stream 0, sample 173, dts 5770700
stream 1, sample 82, dts 5268750
Cliping frame in rate conversion by 0.053276
stream 0, sample 174, dts 5804067
stream 1, sample 82, dts 5268750
Cliping frame in rate conversion by 0.050285
stream 0, sample 175, dts 5838200
stream 1, sample 82, dts 5268750
Cliping frame in rate conversion by 0.051933
stream 0, sample 176, dts 5871478
stream 1, sample 82, dts 5268750
Cliping frame in rate conversion by 0.051933
stream 0, sample 177, dts 5904789
stream 1, sample 82, dts 5268750
Cliping frame in rate conversion by 0.028954
frame=  176 fps= 13 q=31.0 size=    1173kB time=00:00:05.87 bitrate=1636.3kbits/s    stream 0, sample 178, dts 5938222
stream 1, sample 82, dts 5268750
Cliping frame in rate conversion by 0.031639
stream 0, sample 179, dts 5971056
stream 1, sample 82, dts 5268750
Cliping frame in rate conversion by 0.033287
stream 0, sample 180, dts 6005511
stream 1, sample 82, dts 5268750
Cliping frame in rate conversion by 0.031303
stream 0, sample 181, dts 6038600
stream 1, sample 82, dts 5268750
Cliping frame in rate conversion by 0.047264
stream 0, sample 182, dts 6070956
stream 1, sample 82, dts 5268750
Cliping frame in rate conversion by 0.014641
stream 0, sample 183, dts 6104967
stream 1, sample 82, dts 5268750
Writing block at offset 1201254, size 1152, pts 5109, dts 5109, duration 96, keyframe 1
Writing block at offset 1202413, size 5496, pts 5121, dts 5121, duration 33, keyframe 0
Writing block at offset 1207916, size 5210, pts 5154, dts 5154, duration 33, keyframe 0
Writing block at offset 1213133, size 6711, pts 5188, dts 5188, duration 33, keyframe 0
stream 0, sample 183, dts 6104967
stream 1, sample 83, dts 5332750
Starting new cluster at offset 1219851 bytes, pts 5221dts 5221
Writing block at offset 1219867, size 1152, pts 5205, dts 5205, duration 96, keyframe 1
Writing block at offset 1221026, size 14226, pts 5221, dts 5221, duration 33, keyframe 1
Writing block at offset 1235259, size 5372, pts 5255, dts 5255, duration 33, keyframe 0
Writing block at offset 1240638, size 7672, pts 5288, dts 5288, duration 33, keyframe 0
stream 0, sample 183, dts 6104967
stream 1, sample 84, dts 5396750
stream 0, sample 183, dts 6104967
stream 1, sample 85, dts 5460750
Writing block at offset 1248317, size 1152, pts 5301, dts 5301, duration 96, keyframe 1
Writing block at offset 1249476, size 7019, pts 5321, dts 5321, duration 33, keyframe 0
Writing block at offset 1256502, size 6321, pts 5355, dts 5355, duration 33, keyframe 0
Writing block at offset 1262830, size 6168, pts 5388, dts 5388, duration 33, keyframe 0
stream 0, sample 183, dts 6104967
stream 1, sample 86, dts 5524750
Writing block at offset 1269005, size 1152, pts 5397, dts 5397, duration 96, keyframe 1
Writing block at offset 1270164, size 7547, pts 5421, dts 5421, duration 33, keyframe 0
Writing block at offset 1277718, size 4134, pts 5455, dts 5455, duration 33, keyframe 0
Writing block at offset 1281859, size 5910, pts 5488, dts 5488, duration 33, keyframe 0
stream 0, sample 183, dts 6104967
stream 1, sample 87, dts 5588750
stream 0, sample 183, dts 6104967
stream 1, sample 88, dts 5652750
Writing block at offset 1287776, size 1152, pts 5493, dts 5493, duration 96, keyframe 1
Writing block at offset 1288935, size 6579, pts 5522, dts 5522, duration 33, keyframe 0
Writing block at offset 1295521, size 6155, pts 5555, dts 5555, duration 33, keyframe 0
Writing block at offset 1301683, size 7464, pts 5588, dts 5588, duration 33, keyframe 0
stream 0, sample 183, dts 6104967
stream 1, sample 89, dts 5716750
Starting new cluster at offset 1309154 bytes, pts 5622dts 5622
Writing block at offset 1309170, size 1152, pts 5589, dts 5589, duration 96, keyframe 1
Writing block at offset 1310329, size 17041, pts 5622, dts 5622, duration 33, keyframe 1
Writing block at offset 1327378, size 3637, pts 5655, dts 5655, duration 33, keyframe 0
stream 0, sample 183, dts 6104967
stream 1, sample 90, dts 5780750
stream 0, sample 183, dts 6104967
stream 1, sample 91, dts 5844750
Writing block at offset 1331022, size 1152, pts 5685, dts 5685, duration 96, keyframe 1
Writing block at offset 1332181, size 5510, pts 5688, dts 5688, duration 33, keyframe 0
Writing block at offset 1337698, size 5528, pts 5722, dts 5722, duration 33, keyframe 0
Writing block at offset 1343233, size 4947, pts 5755, dts 5755, duration 33, keyframe 0
stream 0, sample 183, dts 6104967
stream 1, sample 92, dts 5908750
Writing block at offset 1348187, size 1152, pts 5781, dts 5781, duration 96, keyframe 1
Writing block at offset 1349346, size 5007, pts 5788, dts 5788, duration 33, keyframe 0
Writing block at offset 1354360, size 4820, pts 5822, dts 5822, duration 33, keyframe 0
Writing block at offset 1359187, size 4791, pts 5855, dts 5855, duration 33, keyframe 0
stream 0, sample 183, dts 6104967
stream 1, sample 93, dts 5972750
stream 0, sample 183, dts 6104967
stream 1, sample 94, dts 6036750
Writing block at offset 1363985, size 1152, pts 5877, dts 5877, duration 96, keyframe 1
Writing block at offset 1365144, size 4462, pts 5889, dts 5889, duration 33, keyframe 0
Writing block at offset 1369613, size 5361, pts 5922, dts 5922, duration 33, keyframe 0
Writing block at offset 1374981, size 5412, pts 5955, dts 5955, duration 33, keyframe 0
stream 0, sample 183, dts 6104967
stream 1, sample 95, dts 6100750
Writing block at offset 1380400, size 1152, pts 5973, dts 5973, duration 96, keyframe 1
Writing block at offset 1381559, size 5857, pts 5989, dts 5989, duration 33, keyframe 0
Starting new cluster at offset 1387423 bytes, pts 6022dts 6022
Writing block at offset 1387439, size 16732, pts 6022, dts 6022, duration 33, keyframe 1
stream 0, sample 183, dts 6104967
stream 1, sample 96, dts 6164750
stream 0, sample 183, dts 6104967
stream 1, sample 97, dts 6228750
stream 0, sample 183, dts 6104967
stream 1, sample 98, dts 6292750
Cliping frame in rate conversion by 0.022972
Writing block at offset 1404179, size 2952, pts 6055, dts 6055, duration 33, keyframe 0
frame=  182 fps= 13 q=31.0 size=    1374kB time=00:00:06.24 bitrate=1802.6kbits/s    stream 0, sample 184, dts 6138444
stream 1, sample 98, dts 6292750
Cliping frame in rate conversion by 0.053276
Writing block at offset 1407138, size 1152, pts 6069, dts 6069, duration 96, keyframe 1
Writing block at offset 1408297, size 1971, pts 6089, dts 6089, duration 33, keyframe 0
stream 0, sample 185, dts 6171878
stream 1, sample 98, dts 6292750
Cliping frame in rate conversion by 0.033958
Writing block at offset 1410275, size 3267, pts 6122, dts 6122, duration 33, keyframe 0
stream 0, sample 186, dts 6205033
stream 1, sample 98, dts 6292750
Cliping frame in rate conversion by 0.030632
Writing block at offset 1413549, size 6039, pts 6155, dts 6155, duration 33, keyframe 0
stream 0, sample 187, dts 6237611
stream 1, sample 98, dts 6292750
Cliping frame in rate conversion by 0.028618
stream 0, sample 188, dts 6271756
stream 1, sample 98, dts 6292750
Cliping frame in rate conversion by 0.034966
stream 0, sample 189, dts 6308233
stream 1, sample 98, dts 6292750
Cliping frame in rate conversion by 0.058586
stream 0, sample 190, dts 6337756
stream 1, sample 98, dts 6292750
Cliping frame in rate conversion by 0.035301
stream 0, sample 191, dts 6371789
stream 1, sample 98, dts 6292750
stream 0, sample 192, dts 6405744
stream 1, sample 98, dts 6292750
Cliping frame in rate conversion by 0.057274
stream 0, sample 193, dts 6437756
stream 1, sample 98, dts 6292750
Cliping frame in rate conversion by 0.037285
stream 0, sample 194, dts 6471878
stream 1, sample 98, dts 6292750
Cliping frame in rate conversion by 0.019646
frame=  193 fps= 13 q=24.8 size=    1386kB time=00:00:06.44 bitrate=1763.5kbits/s    stream 0, sample 195, dts 6505333
stream 1, sample 98, dts 6292750
Cliping frame in rate conversion by 0.060265
stream 0, sample 196, dts 6538022
stream 1, sample 98, dts 6292750
Cliping frame in rate conversion by 0.037621
stream 0, sample 197, dts 6571511
stream 1, sample 98, dts 6292750
Cliping frame in rate conversion by 0.034966
stream 0, sample 198, dts 6605378
stream 1, sample 98, dts 6292750
Cliping frame in rate conversion by 0.055260
stream 0, sample 199, dts 6643522
stream 1, sample 98, dts 6292750
Cliping frame in rate conversion by 0.051598
stream 0, sample 200, dts 6671278
stream 1, sample 98, dts 6292750
Cliping frame in rate conversion by 0.036613
stream 0, sample 201, dts 6705389
stream 1, sample 98, dts 6292750
stream 0, sample 202, dts 6738378
stream 1, sample 98, dts 6292750
Cliping frame in rate conversion by 0.061607
stream 0, sample 203, dts 6771356
stream 1, sample 98, dts 6292750
Cliping frame in rate conversion by 0.039299
stream 1, sample 98, dts 6292750
Writing block at offset 1419595, size 1152, pts 6165, dts 6165, duration 96, keyframe 1
Writing block at offset 1420754, size 4649, pts 6189, dts 6189, duration 33, keyframe 0
Writing block at offset 1425410, size 5829, pts 6222, dts 6222, duration 33, keyframe 0
Writing block at offset 1431246, size 4576, pts 6256, dts 6256, duration 33, keyframe 0
stream 1, sample 99, dts 6356750
stream 1, sample 100, dts 6420750
Writing block at offset 1435829, size 1152, pts 6261, dts 6261, duration 96, keyframe 1
Writing block at offset 1436988, size 4567, pts 6289, dts 6289, duration 33, keyframe 0
Writing block at offset 1441562, size 5193, pts 6322, dts 6322, duration 33, keyframe 0
Writing block at offset 1446762, size 5549, pts 6356, dts 6356, duration 33, keyframe 0
stream 1, sample 101, dts 6484750
Writing block at offset 1452318, size 1152, pts 6357, dts 6357, duration 96, keyframe 1
Writing block at offset 1453477, size 7224, pts 6389, dts 6389, duration 33, keyframe 0
Starting new cluster at offset 1460708 bytes, pts 6422dts 6422
Writing block at offset 1460724, size 14503, pts 6422, dts 6422, duration 33, keyframe 1
stream 1, sample 102, dts 6548750
stream 1, sample 103, dts 6612750
Writing block at offset 1475234, size 1152, pts 6453, dts 6453, duration 96, keyframe 1
Writing block at offset 1476393, size 4516, pts 6456, dts 6456, duration 33, keyframe 0
Writing block at offset 1480916, size 4751, pts 6489, dts 6489, duration 33, keyframe 0
Writing block at offset 1485674, size 5464, pts 6523, dts 6523, duration 33, keyframe 0
Cliping frame in rate conversion by 0.050621
Cliping frame in rate conversion by 0.062248
frame=  204 fps= 14 q=31.0 size=    1456kB time=00:00:06.80 bitrate=1752.5kbits/s    Writing block at offset 1491145, size 1152, pts 6549, dts 6549, duration 96, keyframe 1
Writing block at offset 1492304, size 3111, pts 6556, dts 6556, duration 33, keyframe 0
Writing block at offset 1495422, size 4079, pts 6589, dts 6589, duration 33, keyframe 0
Writing block at offset 1499508, size 3227, pts 6623, dts 6623, duration 33, keyframe 0
EOF on sink link output stream 0:1:default.
EOF on sink link output stream 0:0:default.
No more output streams to write to, finishing.
free_input_threads()
Writing block at offset 1502742, size 1152, pts 6645, dts 6645, duration 96, keyframe 1
Writing block at offset 1503901, size 3509, pts 6656, dts 6656, duration 33, keyframe 0
Writing block at offset 1507417, size 2912, pts 6689, dts 6689, duration 33, keyframe 0
Writing block at offset 1510336, size 2756, pts 6723, dts 6723, duration 33, keyframe 0
Writing block at offset 1513099, size 3264, pts 6756, dts 6756, duration 33, keyframe 0
Writing block at offset 1516370, size 5406, pts 6789, dts 6789, duration 33, keyframe 0
end duration = 6822
stream 0 end duration = 6822
stream 1 end duration = 6741
frame=  204 fps= 14 q=31.0 Lsize=    1486kB time=00:00:06.80 bitrate=1788.9kbits/s    
video:1404kB audio:79kB subtitle:0kB other streams:0kB global headers:0kB muxing overhead: 0.244664%
Input file #0 (/storage/emulated/0/test.mp4):
  Input stream #0:0 (video): 204 packets read (4386717 bytes); 204 frames decoded; 
  Input stream #0:1 (audio): 104 packets read (79872 bytes); 104 frames decoded (106496 samples); 
  Total: 308 packets (4466589 bytes) demuxed
Output file #0 (/storage/emulated/0/out.mkv):
  Output stream #0:0 (video): 204 frames encoded; 204 packets muxed (1437768 bytes); 
  Output stream #0:1 (audio): 70 frames encoded (106496 samples); 70 packets muxed (80640 bytes); 
  Total: 274 packets (1518408 bytes) muxed
HAVE_PTHREADS free_input_threads()
 transcode() result is 0308 frames successfully decoded, 0 decoding errors
finish
